<svg width="70" height="70" viewBox="0 0 70 70" fill="none" xmlns="http://www.w3.org/2000/svg">
<path d="M34.9999 5.8335C18.8999 5.8335 5.83325 18.9002 5.83325 35.0002C5.83325 51.1002 18.8999 64.1668 34.9999 64.1668C51.0999 64.1668 64.1666 51.1002 64.1666 35.0002C64.1666 18.9002 51.0999 5.8335 34.9999 5.8335ZM25.2291 43.0793C24.9082 43.9543 24.0624 44.5085 23.1874 44.5085C22.9249 44.5085 22.6916 44.4793 22.4291 44.3627C20.0666 43.4877 18.0833 41.7668 16.8291 39.521C13.9124 34.271 15.7208 27.4168 20.8249 24.2377L27.6499 20.0085C30.1582 18.4627 33.1041 17.996 35.9041 18.7252C38.7041 19.4543 41.0666 21.2918 42.4958 23.8585C45.4124 29.1085 43.6041 35.9627 38.4999 39.1418L37.7416 39.696C36.7499 40.396 35.3791 40.1627 34.6791 39.2002C33.9791 38.2085 34.2124 36.8377 35.1749 36.1377L36.0791 35.496C39.3457 33.4543 40.4541 29.2252 38.6749 25.9877C37.8291 24.471 36.4582 23.3918 34.8249 22.9543C33.1916 22.5168 31.4707 22.7793 29.9832 23.7127L23.0999 27.971C19.9499 29.9252 18.8416 34.1543 20.6208 37.421C21.3499 38.7335 22.5166 39.7543 23.9166 40.2793C25.0541 40.6877 25.6374 41.9418 25.2291 43.0793ZM49.3499 45.646L42.5249 49.8752C40.8041 50.9543 38.8791 51.4793 36.9249 51.4793C36.0499 51.4793 35.1458 51.3627 34.2708 51.1293C31.4708 50.4002 29.1083 48.5627 27.7083 45.996C24.7916 40.746 26.5999 33.8918 31.7041 30.7127L32.4624 30.1585C33.4541 29.4585 34.8249 29.6918 35.5249 30.6543C36.2249 31.646 35.9916 33.0168 35.0291 33.7168L34.1249 34.3585C30.8582 36.4002 29.7499 40.6293 31.5291 43.8668C32.3749 45.3835 33.7458 46.4627 35.3791 46.9002C37.0124 47.3377 38.7332 47.0752 40.2207 46.1418L47.0457 41.9127C50.1957 39.9585 51.3041 35.7293 49.5249 32.4627C48.7957 31.1502 47.6291 30.1293 46.2291 29.6043C45.0916 29.196 44.5083 27.9418 44.9458 26.8043C45.3541 25.6668 46.6374 25.0835 47.7458 25.521C50.1083 26.396 52.0916 28.1168 53.3458 30.3627C56.2333 35.6127 54.4541 42.4668 49.3499 45.646Z" fill="url(#paint0_linear_2706_7727)"/>
<defs>
<linearGradient id="paint0_linear_2706_7727" x1="5.83325" y1="35.0002" x2="64.1666" y2="35.0002" gradientUnits="userSpaceOnUse">
<stop stop-color="#0052D4"/>
<stop offset="0.5" stop-color="#4364F7"/>
<stop offset="1" stop-color="#6FB1FC"/>
</linearGradient>
</defs>
</svg>
