<svg width="50" height="50" viewBox="0 0 50 50" fill="none" xmlns="http://www.w3.org/2000/svg">
<path d="M25.0001 4.16663C13.5209 4.16663 4.16675 13.5208 4.16675 25C4.16675 36.4791 13.5209 45.8333 25.0001 45.8333C36.4792 45.8333 45.8334 36.4791 45.8334 25C45.8334 13.5208 36.4792 4.16663 25.0001 4.16663ZM34.9584 20.2083L23.1459 32.0208C22.8542 32.3125 22.4584 32.4791 22.0417 32.4791C21.6251 32.4791 21.2292 32.3125 20.9376 32.0208L15.0417 26.125C14.4376 25.5208 14.4376 24.5208 15.0417 23.9166C15.6459 23.3125 16.6459 23.3125 17.2501 23.9166L22.0417 28.7083L32.7501 18C33.3542 17.3958 34.3542 17.3958 34.9584 18C35.5626 18.6041 35.5626 19.5833 34.9584 20.2083Z" fill="#0F5CA8"/>
</svg>
