<svg width="32" height="32" viewBox="0 0 32 32" fill="none" xmlns="http://www.w3.org/2000/svg">
<path d="M16 0C24.8533 0 32 7.14667 32 16C32 24.8533 24.8533 32 16 32C7.14667 32 0 24.8533 0 16C0 7.14667 7.14667 0 16 0Z" fill="#FFDD67"/>
<path d="M18.0267 9.86676C16.8533 10.4534 15.0933 10.4534 13.92 9.86676C12.6933 9.22676 11.1467 8.80009 9.27999 8.64009C7.46666 8.48009 3.67999 8.48009 1.81333 9.17343C1.59999 9.22676 1.38666 9.33343 1.17333 9.44009C1.11999 9.49343 1.06666 9.54676 1.06666 9.76009V10.0268C1.06666 10.5601 1.01333 10.3468 1.38666 10.5601C2.13333 10.9868 2.55999 12.1068 2.77333 13.6534C3.09333 15.8934 4.21333 17.3334 5.97333 17.9734C7.62666 18.6134 9.49333 18.5601 11.1467 17.9201C12.0533 17.5468 12.8533 17.0134 13.4933 16.0534C14.6133 14.4534 14.24 13.4401 14.8267 12.0534C15.3067 10.8268 16.6933 10.8268 17.2267 12.0534C17.8133 13.4401 17.44 14.4534 18.56 16.0534C19.2 16.9601 20 17.5468 20.9067 17.9201C22.56 18.5601 24.4267 18.6134 26.08 17.9734C27.8933 17.2801 28.96 15.8934 29.28 13.6534C29.4933 12.1068 29.92 10.9868 30.6667 10.5601C31.04 10.3468 30.9867 10.5601 30.9867 10.0268V9.76009C30.9867 9.54676 30.9867 9.49343 30.8267 9.44009C30.6133 9.33343 30.4 9.22676 30.1867 9.17343C28.2667 8.48009 24.48 8.48009 22.72 8.64009C20.8533 8.80009 19.3067 9.22676 18.0267 9.86676Z" fill="#494949"/>
<path d="M22.72 21.4932C18.4 24.5332 13.6 24.4799 9.28001 21.4932C8.74668 21.1199 8.32001 21.7599 8.64001 22.3466C9.97335 24.4799 12.5867 26.4532 16 26.4532C19.4133 26.4532 22.0267 24.5332 23.36 22.3466C23.68 21.7599 23.2533 21.1199 22.72 21.4932Z" fill="#664E27"/>
</svg>
