<svg width="102" height="24" viewBox="0 0 102 24" fill="none" xmlns="http://www.w3.org/2000/svg">
<path d="M17.5699 18.82C17.7599 18.82 17.9499 18.75 18.0999 18.6C18.3899 18.31 18.3899 17.83 18.0999 17.54L12.5599 12L18.0999 6.46C18.3899 6.17 18.3899 5.69 18.0999 5.4C17.8099 5.11 17.3299 5.11 17.0399 5.4L10.9699 11.47C10.6799 11.76 10.6799 12.24 10.9699 12.53L17.0399 18.6C17.1899 18.75 17.3799 18.82 17.5699 18.82Z" fill="#0F5CA8"/>
<path d="M11.67 12.75H28.5C28.91 12.75 29.25 12.41 29.25 12C29.25 11.59 28.91 11.25 28.5 11.25H11.67C11.26 11.25 10.92 11.59 10.92 12C10.92 12.41 11.26 12.75 11.67 12.75Z" fill="#1B1C1E"/>
<path d="M41.162 10.496C40.77 11.252 40.588 12.12 40.588 13.1C40.588 14.08 40.77 14.948 41.162 15.704C41.554 16.46 42.1 17.034 42.8 17.454C43.5 17.874 44.298 18.084 45.194 18.084C45.95 18.084 46.608 17.93 47.154 17.594C47.686 17.272 48.092 16.894 48.372 16.446L48.498 18H49.506V12.694H45.376V13.814H48.316V14.15C48.316 14.724 48.176 15.228 47.91 15.648C47.644 16.068 47.28 16.404 46.804 16.628C46.328 16.852 45.796 16.964 45.208 16.964C44.536 16.964 43.948 16.81 43.444 16.474C42.926 16.152 42.534 15.69 42.254 15.102C41.974 14.514 41.834 13.856 41.834 13.1C41.834 12.358 41.974 11.686 42.254 11.098C42.534 10.51 42.926 10.062 43.444 9.726C43.962 9.404 44.564 9.236 45.236 9.236C45.964 9.236 46.594 9.432 47.112 9.81C47.616 10.188 47.966 10.72 48.162 11.392H49.366C49.17 10.384 48.708 9.586 47.98 8.998C47.252 8.41 46.342 8.116 45.264 8.116C44.326 8.116 43.5 8.326 42.8 8.746C42.086 9.166 41.54 9.74 41.162 10.496ZM52.685 17.622C53.217 17.93 53.833 18.084 54.533 18.084C55.219 18.084 55.835 17.93 56.367 17.622C56.899 17.314 57.319 16.894 57.627 16.334C57.921 15.788 58.075 15.158 58.075 14.43C58.075 13.716 57.921 13.086 57.627 12.526C57.319 11.98 56.899 11.546 56.367 11.238C55.835 10.93 55.219 10.776 54.533 10.776C53.833 10.776 53.217 10.93 52.685 11.238C52.153 11.546 51.733 11.98 51.439 12.526C51.131 13.086 50.991 13.716 50.991 14.43C50.991 15.158 51.131 15.788 51.439 16.334C51.733 16.894 52.153 17.314 52.685 17.622ZM55.765 16.726C55.401 16.95 54.995 17.062 54.533 17.062C54.057 17.062 53.651 16.95 53.287 16.726C52.923 16.502 52.657 16.194 52.461 15.788C52.265 15.396 52.167 14.934 52.167 14.43C52.167 13.926 52.265 13.478 52.461 13.072C52.657 12.68 52.923 12.358 53.287 12.134C53.651 11.91 54.057 11.798 54.533 11.798C54.995 11.798 55.401 11.91 55.765 12.134C56.129 12.358 56.409 12.68 56.605 13.072C56.801 13.478 56.899 13.926 56.899 14.43C56.899 14.934 56.801 15.396 56.605 15.788C56.409 16.194 56.129 16.502 55.765 16.726ZM66.6955 8.2H63.2235V18H66.7935C67.9415 18 68.8095 17.762 69.4255 17.286C70.0415 16.81 70.3495 16.138 70.3495 15.298C70.3495 14.01 69.6215 13.24 68.1935 12.96C68.7535 12.82 69.1875 12.554 69.4955 12.176C69.7895 11.798 69.9435 11.322 69.9435 10.734C69.9435 9.95 69.6495 9.32 69.0895 8.872C68.5295 8.424 67.7315 8.2 66.6955 8.2ZM64.4415 12.456V9.306H66.7515C67.3815 9.306 67.8715 9.446 68.2075 9.726C68.5435 10.006 68.7255 10.384 68.7255 10.874C68.7255 11.378 68.5435 11.756 68.2075 12.036C67.8575 12.316 67.3675 12.456 66.7515 12.456H64.4415ZM64.4415 16.894V13.548H66.7935C67.5215 13.548 68.0955 13.702 68.5015 13.996C68.8935 14.29 69.1035 14.71 69.1035 15.256C69.1035 15.774 68.8935 16.18 68.5015 16.46C68.1095 16.754 67.5355 16.894 66.7935 16.894H64.4415ZM78.4561 16.95H78.1061C77.7841 16.95 77.6301 16.782 77.6301 16.432V13.352C77.6301 12.526 77.3781 11.896 76.8741 11.448C76.3701 11 75.6701 10.776 74.7601 10.776C73.8921 10.776 73.1921 10.972 72.6601 11.364C72.1281 11.756 71.8201 12.302 71.7361 13.002H72.8841C72.9541 12.638 73.1501 12.358 73.4721 12.134C73.7941 11.91 74.2001 11.798 74.7041 11.798C75.2641 11.798 75.6981 11.938 76.0061 12.19C76.3141 12.456 76.4821 12.82 76.4821 13.282V13.772H74.3821C73.4441 13.772 72.7301 13.968 72.2401 14.346C71.7501 14.738 71.5121 15.284 71.5121 15.998C71.5121 16.642 71.7501 17.16 72.2261 17.524C72.7021 17.902 73.3461 18.084 74.1441 18.084C75.1801 18.084 75.9781 17.692 76.5381 16.894C76.5381 17.258 76.6501 17.538 76.8461 17.72C77.0421 17.916 77.3641 18 77.8261 18H78.4561V16.95ZM76.4821 14.738V15.088C76.4821 15.704 76.2721 16.194 75.8801 16.558C75.4741 16.922 74.9281 17.104 74.2281 17.104C73.7521 17.104 73.3741 17.006 73.0941 16.782C72.8141 16.572 72.6741 16.292 72.6741 15.928C72.6741 15.144 73.2061 14.738 74.2701 14.738H76.4821ZM84.6587 17.412C85.2047 16.964 85.5547 16.334 85.7087 15.536H84.5607C84.4487 16.012 84.2247 16.39 83.8747 16.656C83.5107 16.936 83.0767 17.062 82.5587 17.062C81.8727 17.062 81.3127 16.824 80.8927 16.334C80.4727 15.844 80.2627 15.2 80.2627 14.416C80.2627 13.646 80.4727 13.016 80.8927 12.526C81.3127 12.05 81.8727 11.798 82.5587 11.798C83.0627 11.798 83.4827 11.938 83.8467 12.204C84.1967 12.484 84.4347 12.848 84.5467 13.296H85.7087C85.5687 12.512 85.2187 11.896 84.6727 11.448C84.1267 11 83.4407 10.776 82.6007 10.776C81.9007 10.776 81.2987 10.93 80.7667 11.238C80.2347 11.546 79.8147 11.966 79.5207 12.512C79.2267 13.072 79.0867 13.702 79.0867 14.416C79.0867 15.144 79.2267 15.774 79.5207 16.334C79.8007 16.894 80.2067 17.314 80.7387 17.622C81.2567 17.93 81.8587 18.084 82.5587 18.084C83.3987 18.084 84.0987 17.86 84.6587 17.412ZM87.036 8.2V18H88.184V16.11L89.612 14.612L91.992 18H93.378L90.438 13.786L93.182 10.86H91.81L88.184 14.696V8.2H87.036Z" fill="#0F5CA8"/>
</svg>
