<svg width="71" height="70" viewBox="0 0 71 70" fill="none" xmlns="http://www.w3.org/2000/svg">
<circle cx="35.5" cy="35" r="35" fill="#E7EFF6"/>
<path d="M34.9997 18.333C25.7997 18.333 18.333 25.7997 18.333 34.9997C18.333 44.1997 25.7997 51.6663 34.9997 51.6663C44.1997 51.6663 51.6663 44.1997 51.6663 34.9997C51.6663 25.7997 44.1997 18.333 34.9997 18.333ZM29.4163 39.6163C29.233 40.1163 28.7497 40.433 28.2497 40.433C28.0997 40.433 27.9663 40.4163 27.8163 40.3497C26.4663 39.8497 25.333 38.8663 24.6163 37.583C22.9497 34.583 23.983 30.6663 26.8997 28.8497L30.7997 26.433C32.233 25.5497 33.9163 25.283 35.5163 25.6997C37.1163 26.1163 38.4663 27.1663 39.283 28.633C40.9497 31.633 39.9163 35.5497 36.9997 37.3663L36.5663 37.683C35.9997 38.083 35.2163 37.9497 34.8163 37.3997C34.4163 36.833 34.5497 36.0497 35.0997 35.6497L35.6163 35.283C37.483 34.1163 38.1163 31.6997 37.0997 29.8497C36.6163 28.983 35.833 28.3663 34.8997 28.1163C33.9663 27.8663 32.983 28.0163 32.133 28.5497L28.1997 30.983C26.3997 32.0997 25.7663 34.5163 26.783 36.383C27.1997 37.133 27.8663 37.7163 28.6663 38.0163C29.3163 38.2497 29.6497 38.9663 29.4163 39.6163ZM43.1997 41.083L39.2997 43.4997C38.3163 44.1163 37.2163 44.4163 36.0997 44.4163C35.5997 44.4163 35.083 44.3497 34.583 44.2163C32.983 43.7997 31.633 42.7497 30.833 41.283C29.1663 38.283 30.1997 34.3663 33.1163 32.5497L33.5497 32.233C34.1163 31.833 34.8997 31.9663 35.2997 32.5163C35.6997 33.083 35.5663 33.8663 35.0163 34.2663L34.4997 34.633C32.633 35.7997 31.9997 38.2163 33.0163 40.0663C33.4997 40.933 34.283 41.5497 35.2163 41.7997C36.1497 42.0497 37.133 41.8997 37.983 41.3663L41.883 38.9497C43.683 37.833 44.3163 35.4163 43.2997 33.5497C42.883 32.7997 42.2163 32.2163 41.4163 31.9163C40.7663 31.683 40.433 30.9663 40.683 30.3163C40.9163 29.6663 41.6497 29.333 42.283 29.583C43.633 30.083 44.7663 31.0663 45.483 32.3497C47.133 35.3497 46.1163 39.2663 43.1997 41.083Z" fill="#0F5CA8"/>
</svg>
