<svg width="40" height="40" viewBox="0 0 40 40" fill="none" xmlns="http://www.w3.org/2000/svg">
<circle cx="20" cy="20" r="20" fill="#E7EFF6"/>
<path d="M20 10C14.48 10 10 14.48 10 20C10 25.52 14.48 30 20 30C25.52 30 30 25.52 30 20C30 14.48 25.52 10 20 10ZM16.65 22.77C16.54 23.07 16.25 23.26 15.95 23.26C15.86 23.26 15.78 23.25 15.69 23.21C14.88 22.91 14.2 22.32 13.77 21.55C12.77 19.75 13.39 17.4 15.14 16.31L17.48 14.86C18.34 14.33 19.35 14.17 20.31 14.42C21.27 14.67 22.08 15.3 22.57 16.18C23.57 17.98 22.95 20.33 21.2 21.42L20.94 21.61C20.6 21.85 20.13 21.77 19.89 21.44C19.65 21.1 19.73 20.63 20.06 20.39L20.37 20.17C21.49 19.47 21.87 18.02 21.26 16.91C20.97 16.39 20.5 16.02 19.94 15.87C19.38 15.72 18.79 15.81 18.28 16.13L15.92 17.59C14.84 18.26 14.46 19.71 15.07 20.83C15.32 21.28 15.72 21.63 16.2 21.81C16.59 21.95 16.79 22.38 16.65 22.77ZM24.92 23.65L22.58 25.1C21.99 25.47 21.33 25.65 20.66 25.65C20.36 25.65 20.05 25.61 19.75 25.53C18.79 25.28 17.98 24.65 17.5 23.77C16.5 21.97 17.12 19.62 18.87 18.53L19.13 18.34C19.47 18.1 19.94 18.18 20.18 18.51C20.42 18.85 20.34 19.32 20.01 19.56L19.7 19.78C18.58 20.48 18.2 21.93 18.81 23.04C19.1 23.56 19.57 23.93 20.13 24.08C20.69 24.23 21.28 24.14 21.79 23.82L24.13 22.37C25.21 21.7 25.59 20.25 24.98 19.13C24.73 18.68 24.33 18.33 23.85 18.15C23.46 18.01 23.26 17.58 23.41 17.19C23.55 16.8 23.99 16.6 24.37 16.75C25.18 17.05 25.86 17.64 26.29 18.41C27.28 20.21 26.67 22.56 24.92 23.65Z" fill="#0F5CA8"/>
</svg>
