<svg width="170" height="170" viewBox="0 0 170 170" fill="none" xmlns="http://www.w3.org/2000/svg">
<g clip-path="url(#clip0_2327_4928)">
<path d="M170 0H0V170H170V0Z" fill="white"/>
<path d="M17.7083 10.625H10.625V17.7083H17.7083V10.625Z" fill="#1B1C1E"/>
<path d="M24.7917 10.625H17.7083V17.7083H24.7917V10.625Z" fill="#1B1C1E"/>
<path d="M31.875 10.625H24.7917V17.7083H31.875V10.625Z" fill="#1B1C1E"/>
<path d="M38.9583 10.625H31.875V17.7083H38.9583V10.625Z" fill="#1B1C1E"/>
<path d="M46.0417 10.625H38.9583V17.7083H46.0417V10.625Z" fill="#1B1C1E"/>
<path d="M53.125 10.625H46.0417V17.7083H53.125V10.625Z" fill="#1B1C1E"/>
<path d="M60.2083 10.625H53.125V17.7083H60.2083V10.625Z" fill="#1B1C1E"/>
<path d="M74.375 10.625H67.2917V17.7083H74.375V10.625Z" fill="#1B1C1E"/>
<path d="M88.5417 10.625H81.4583V17.7083H88.5417V10.625Z" fill="#1B1C1E"/>
<path d="M95.625 10.625H88.5417V17.7083H95.625V10.625Z" fill="#1B1C1E"/>
<path d="M102.708 10.625H95.625V17.7083H102.708V10.625Z" fill="#1B1C1E"/>
<path d="M116.875 10.625H109.792V17.7083H116.875V10.625Z" fill="#1B1C1E"/>
<path d="M123.958 10.625H116.875V17.7083H123.958V10.625Z" fill="#1B1C1E"/>
<path d="M131.042 10.625H123.958V17.7083H131.042V10.625Z" fill="#1B1C1E"/>
<path d="M138.125 10.625H131.042V17.7083H138.125V10.625Z" fill="#1B1C1E"/>
<path d="M145.208 10.625H138.125V17.7083H145.208V10.625Z" fill="#1B1C1E"/>
<path d="M152.292 10.625H145.208V17.7083H152.292V10.625Z" fill="#1B1C1E"/>
<path d="M159.375 10.625H152.292V17.7083H159.375V10.625Z" fill="#1B1C1E"/>
<path d="M17.7083 17.7083H10.625V24.7917H17.7083V17.7083Z" fill="#1B1C1E"/>
<path d="M60.2083 17.7083H53.125V24.7917H60.2083V17.7083Z" fill="#1B1C1E"/>
<path d="M81.4583 17.7083H74.375L74.375 24.7917H81.4583L81.4583 17.7083Z" fill="#1B1C1E"/>
<path d="M88.5417 17.7083H81.4583L81.4583 24.7917H88.5417V17.7083Z" fill="#1B1C1E"/>
<path d="M102.708 17.7083H95.625V24.7917H102.708V17.7083Z" fill="#1B1C1E"/>
<path d="M116.875 17.7083H109.792V24.7917H116.875V17.7083Z" fill="#1B1C1E"/>
<path d="M159.375 17.7083H152.292V24.7917H159.375V17.7083Z" fill="#1B1C1E"/>
<path d="M17.7083 24.7917H10.625V31.875H17.7083V24.7917Z" fill="#1B1C1E"/>
<path d="M31.875 24.7917H24.7917V31.875H31.875V24.7917Z" fill="#1B1C1E"/>
<path d="M38.9583 24.7917H31.875V31.875H38.9583V24.7917Z" fill="#1B1C1E"/>
<path d="M46.0417 24.7917H38.9583V31.875H46.0417V24.7917Z" fill="#1B1C1E"/>
<path d="M60.2083 24.7917H53.125V31.875H60.2083V24.7917Z" fill="#1B1C1E"/>
<path d="M74.375 24.7917H67.2917V31.875H74.375L74.375 24.7917Z" fill="#1B1C1E"/>
<path d="M95.625 24.7917H88.5417L88.5417 31.875H95.625V24.7917Z" fill="#1B1C1E"/>
<path d="M116.875 24.7917H109.792V31.875H116.875V24.7917Z" fill="#1B1C1E"/>
<path d="M131.042 24.7917H123.958V31.875H131.042V24.7917Z" fill="#1B1C1E"/>
<path d="M138.125 24.7917H131.042V31.875H138.125V24.7917Z" fill="#1B1C1E"/>
<path d="M145.208 24.7917H138.125V31.875H145.208V24.7917Z" fill="#1B1C1E"/>
<path d="M159.375 24.7917H152.292V31.875H159.375V24.7917Z" fill="#1B1C1E"/>
<path d="M17.7083 31.875H10.625V38.9583H17.7083V31.875Z" fill="#1B1C1E"/>
<path d="M31.875 31.875H24.7917V38.9583H31.875V31.875Z" fill="#1B1C1E"/>
<path d="M38.9583 31.875H31.875V38.9583H38.9583V31.875Z" fill="#1B1C1E"/>
<path d="M46.0417 31.875H38.9583V38.9583H46.0417V31.875Z" fill="#1B1C1E"/>
<path d="M60.2083 31.875H53.125V38.9583H60.2083V31.875Z" fill="#1B1C1E"/>
<path d="M74.375 31.875H67.2917V38.9583H74.375V31.875Z" fill="#1B1C1E"/>
<path d="M95.625 31.875H88.5417V38.9583H95.625V31.875Z" fill="#1B1C1E"/>
<path d="M116.875 31.875H109.792V38.9583H116.875V31.875Z" fill="#1B1C1E"/>
<path d="M131.042 31.875H123.958V38.9583H131.042V31.875Z" fill="#1B1C1E"/>
<path d="M138.125 31.875H131.042V38.9583H138.125V31.875Z" fill="#1B1C1E"/>
<path d="M145.208 31.875H138.125V38.9583H145.208V31.875Z" fill="#1B1C1E"/>
<path d="M159.375 31.875H152.292V38.9583H159.375V31.875Z" fill="#1B1C1E"/>
<path d="M17.7083 38.9583H10.625V46.0417H17.7083V38.9583Z" fill="#1B1C1E"/>
<path d="M31.875 38.9583H24.7917V46.0417H31.875V38.9583Z" fill="#1B1C1E"/>
<path d="M38.9583 38.9583H31.875V46.0417H38.9583V38.9583Z" fill="#1B1C1E"/>
<path d="M46.0417 38.9583H38.9583V46.0417H46.0417V38.9583Z" fill="#1B1C1E"/>
<path d="M60.2083 38.9583H53.125V46.0417H60.2083V38.9583Z" fill="#1B1C1E"/>
<path d="M74.375 38.9583H67.2917V46.0417H74.375V38.9583Z" fill="#1B1C1E"/>
<path d="M81.4583 38.9583H74.375V46.0417H81.4583V38.9583Z" fill="#1B1C1E"/>
<path d="M95.625 38.9583H88.5417V46.0417H95.625V38.9583Z" fill="#1B1C1E"/>
<path d="M102.708 38.9583H95.625V46.0417H102.708V38.9583Z" fill="#1B1C1E"/>
<path d="M116.875 38.9583H109.792V46.0417H116.875V38.9583Z" fill="#1B1C1E"/>
<path d="M131.042 38.9583H123.958V46.0417H131.042V38.9583Z" fill="#1B1C1E"/>
<path d="M138.125 38.9583H131.042V46.0417H138.125V38.9583Z" fill="#1B1C1E"/>
<path d="M145.208 38.9583H138.125V46.0417H145.208V38.9583Z" fill="#1B1C1E"/>
<path d="M159.375 38.9583H152.292V46.0417H159.375V38.9583Z" fill="#1B1C1E"/>
<path d="M17.7083 46.0417H10.625V53.125H17.7083V46.0417Z" fill="#1B1C1E"/>
<path d="M60.2083 46.0417H53.125V53.125H60.2083V46.0417Z" fill="#1B1C1E"/>
<path d="M74.375 46.0417H67.2917V53.125H74.375V46.0417Z" fill="#1B1C1E"/>
<path d="M81.4583 46.0417H74.375V53.125H81.4583V46.0417Z" fill="#1B1C1E"/>
<path d="M88.5417 46.0417H81.4583V53.125H88.5417L88.5417 46.0417Z" fill="#1B1C1E"/>
<path d="M95.625 46.0417H88.5417L88.5417 53.125H95.625V46.0417Z" fill="#1B1C1E"/>
<path d="M116.875 46.0417H109.792V53.125H116.875V46.0417Z" fill="#1B1C1E"/>
<path d="M159.375 46.0417H152.292V53.125H159.375V46.0417Z" fill="#1B1C1E"/>
<path d="M17.7083 53.125H10.625V60.2083H17.7083V53.125Z" fill="#1B1C1E"/>
<path d="M24.7917 53.125H17.7083V60.2083H24.7917V53.125Z" fill="#1B1C1E"/>
<path d="M31.875 53.125H24.7917V60.2083H31.875V53.125Z" fill="#1B1C1E"/>
<path d="M38.9583 53.125H31.875V60.2083H38.9583V53.125Z" fill="#1B1C1E"/>
<path d="M46.0417 53.125H38.9583V60.2083H46.0417V53.125Z" fill="#1B1C1E"/>
<path d="M53.125 53.125H46.0417V60.2083H53.125V53.125Z" fill="#1B1C1E"/>
<path d="M60.2083 53.125H53.125V60.2083H60.2083V53.125Z" fill="#1B1C1E"/>
<path d="M74.375 53.125H67.2917V60.2083H74.375V53.125Z" fill="#1B1C1E"/>
<path d="M88.5417 53.125H81.4583L81.4583 60.2083H88.5417V53.125Z" fill="#1B1C1E"/>
<path d="M102.708 53.125H95.625V60.2083H102.708V53.125Z" fill="#1B1C1E"/>
<path d="M116.875 53.125H109.792V60.2083H116.875V53.125Z" fill="#1B1C1E"/>
<path d="M123.958 53.125H116.875V60.2083H123.958V53.125Z" fill="#1B1C1E"/>
<path d="M131.042 53.125H123.958V60.2083H131.042V53.125Z" fill="#1B1C1E"/>
<path d="M138.125 53.125H131.042V60.2083H138.125V53.125Z" fill="#1B1C1E"/>
<path d="M145.208 53.125H138.125V60.2083H145.208V53.125Z" fill="#1B1C1E"/>
<path d="M152.292 53.125H145.208V60.2083H152.292V53.125Z" fill="#1B1C1E"/>
<path d="M159.375 53.125H152.292V60.2083H159.375V53.125Z" fill="#1B1C1E"/>
<path d="M95.625 60.2083H88.5417L88.5417 67.2917H95.625V60.2083Z" fill="#1B1C1E"/>
<path d="M31.875 67.2917H24.7917V74.375H31.875V67.2917Z" fill="#1B1C1E"/>
<path d="M38.9583 67.2917H31.875V74.375H38.9583V67.2917Z" fill="#1B1C1E"/>
<path d="M46.0417 67.2917H38.9583V74.375H46.0417V67.2917Z" fill="#1B1C1E"/>
<path d="M53.125 67.2917H46.0417V74.375H53.125V67.2917Z" fill="#1B1C1E"/>
<path d="M60.2083 67.2917H53.125V74.375H60.2083V67.2917Z" fill="#1B1C1E"/>
<path d="M67.2917 67.2917H60.2083V74.375H67.2917V67.2917Z" fill="#1B1C1E"/>
<path d="M81.4583 67.2917H74.375V74.375H81.4583V67.2917Z" fill="#1B1C1E"/>
<path d="M88.5417 67.2917L81.4583 67.2917V74.375H88.5417L88.5417 67.2917Z" fill="#1B1C1E"/>
<path d="M95.625 67.2917H88.5417L88.5417 74.375H95.625V67.2917Z" fill="#1B1C1E"/>
<path d="M102.708 67.2917L95.625 67.2917V74.375H102.708V67.2917Z" fill="#1B1C1E"/>
<path d="M109.792 67.2917H102.708V74.375H109.792V67.2917Z" fill="#1B1C1E"/>
<path d="M123.958 67.2917H116.875V74.375H123.958V67.2917Z" fill="#1B1C1E"/>
<path d="M131.042 67.2917H123.958V74.375H131.042V67.2917Z" fill="#1B1C1E"/>
<path d="M138.125 67.2917H131.042V74.375H138.125V67.2917Z" fill="#1B1C1E"/>
<path d="M145.208 67.2917H138.125V74.375H145.208V67.2917Z" fill="#1B1C1E"/>
<path d="M159.375 67.2917H152.292V74.375H159.375V67.2917Z" fill="#1B1C1E"/>
<path d="M24.7917 74.375L17.7083 74.375V81.4583H24.7917V74.375Z" fill="#1B1C1E"/>
<path d="M38.9583 74.375H31.875V81.4583H38.9583V74.375Z" fill="#1B1C1E"/>
<path d="M53.125 74.375H46.0417V81.4583H53.125V74.375Z" fill="#1B1C1E"/>
<path d="M81.4583 74.375H74.375V81.4583H81.4583V74.375Z" fill="#1B1C1E"/>
<path d="M95.625 74.375H88.5417L88.5417 81.4583H95.625V74.375Z" fill="#1B1C1E"/>
<path d="M116.875 74.375H109.792V81.4583H116.875V74.375Z" fill="#1B1C1E"/>
<path d="M138.125 74.375H131.042V81.4583H138.125V74.375Z" fill="#1B1C1E"/>
<path d="M145.208 74.375H138.125V81.4583H145.208V74.375Z" fill="#1B1C1E"/>
<path d="M152.292 74.375H145.208V81.4583H152.292V74.375Z" fill="#1B1C1E"/>
<path d="M159.375 74.375H152.292V81.4583H159.375V74.375Z" fill="#1B1C1E"/>
<path d="M24.7917 81.4583H17.7083V88.5417H24.7917V81.4583Z" fill="#1B1C1E"/>
<path d="M38.9583 81.4583H31.875V88.5417H38.9583V81.4583Z" fill="#1B1C1E"/>
<path d="M46.0417 81.4583H38.9583V88.5417H46.0417V81.4583Z" fill="#1B1C1E"/>
<path d="M60.2083 81.4583L53.125 81.4583V88.5417H60.2083V81.4583Z" fill="#1B1C1E"/>
<path d="M67.2917 81.4583H60.2083V88.5417H67.2917V81.4583Z" fill="#1B1C1E"/>
<path d="M95.625 81.4583H88.5417V88.5417H95.625V81.4583Z" fill="#1B1C1E"/>
<path d="M102.708 81.4583L95.625 81.4583V88.5417H102.708V81.4583Z" fill="#1B1C1E"/>
<path d="M123.958 81.4583L116.875 81.4583V88.5417H123.958V81.4583Z" fill="#1B1C1E"/>
<path d="M131.042 81.4583L123.958 81.4583V88.5417H131.042V81.4583Z" fill="#1B1C1E"/>
<path d="M138.125 81.4583H131.042V88.5417H138.125V81.4583Z" fill="#1B1C1E"/>
<path d="M159.375 81.4583H152.292V88.5417H159.375V81.4583Z" fill="#1B1C1E"/>
<path d="M17.7083 88.5417L10.625 88.5417V95.625H17.7083V88.5417Z" fill="#1B1C1E"/>
<path d="M38.9583 88.5417H31.875V95.625H38.9583V88.5417Z" fill="#1B1C1E"/>
<path d="M53.125 88.5417H46.0417V95.625H53.125V88.5417Z" fill="#1B1C1E"/>
<path d="M74.375 88.5417L67.2917 88.5417L67.2917 95.625H74.375V88.5417Z" fill="#1B1C1E"/>
<path d="M81.4583 88.5417H74.375V95.625H81.4583V88.5417Z" fill="#1B1C1E"/>
<path d="M95.625 88.5417H88.5417V95.625H95.625V88.5417Z" fill="#1B1C1E"/>
<path d="M116.875 88.5417L109.792 88.5417V95.625H116.875V88.5417Z" fill="#1B1C1E"/>
<path d="M131.042 88.5417H123.958V95.625H131.042V88.5417Z" fill="#1B1C1E"/>
<path d="M138.125 88.5417H131.042V95.625H138.125V88.5417Z" fill="#1B1C1E"/>
<path d="M152.292 88.5417L145.208 88.5417V95.625H152.292V88.5417Z" fill="#1B1C1E"/>
<path d="M31.875 95.625H24.7917V102.708H31.875V95.625Z" fill="#1B1C1E"/>
<path d="M38.9583 95.625H31.875V102.708H38.9583V95.625Z" fill="#1B1C1E"/>
<path d="M46.0417 95.625H38.9583V102.708H46.0417V95.625Z" fill="#1B1C1E"/>
<path d="M60.2083 95.625H53.125V102.708H60.2083V95.625Z" fill="#1B1C1E"/>
<path d="M81.4583 95.625H74.375L74.375 102.708H81.4583V95.625Z" fill="#1B1C1E"/>
<path d="M88.5417 95.625H81.4583V102.708H88.5417L88.5417 95.625Z" fill="#1B1C1E"/>
<path d="M95.625 95.625H88.5417L88.5417 102.708H95.625V95.625Z" fill="#1B1C1E"/>
<path d="M102.708 95.625H95.625V102.708H102.708V95.625Z" fill="#1B1C1E"/>
<path d="M109.792 95.625H102.708V102.708H109.792V95.625Z" fill="#1B1C1E"/>
<path d="M138.125 95.625H131.042V102.708H138.125V95.625Z" fill="#1B1C1E"/>
<path d="M145.208 95.625H138.125V102.708H145.208V95.625Z" fill="#1B1C1E"/>
<path d="M152.292 95.625H145.208V102.708H152.292V95.625Z" fill="#1B1C1E"/>
<path d="M159.375 95.625H152.292V102.708H159.375V95.625Z" fill="#1B1C1E"/>
<path d="M81.4583 102.708H74.375V109.792H81.4583V102.708Z" fill="#1B1C1E"/>
<path d="M95.625 102.708H88.5417L88.5417 109.792H95.625V102.708Z" fill="#1B1C1E"/>
<path d="M116.875 102.708H109.792V109.792H116.875V102.708Z" fill="#1B1C1E"/>
<path d="M131.042 102.708H123.958V109.792H131.042V102.708Z" fill="#1B1C1E"/>
<path d="M138.125 102.708H131.042V109.792H138.125V102.708Z" fill="#1B1C1E"/>
<path d="M152.292 102.708H145.208V109.792H152.292V102.708Z" fill="#1B1C1E"/>
<path d="M17.7083 109.792H10.625V116.875H17.7083V109.792Z" fill="#1B1C1E"/>
<path d="M24.7917 109.792H17.7083V116.875H24.7917V109.792Z" fill="#1B1C1E"/>
<path d="M31.875 109.792H24.7917V116.875H31.875V109.792Z" fill="#1B1C1E"/>
<path d="M38.9583 109.792H31.875V116.875H38.9583V109.792Z" fill="#1B1C1E"/>
<path d="M46.0417 109.792H38.9583V116.875H46.0417V109.792Z" fill="#1B1C1E"/>
<path d="M53.125 109.792H46.0417V116.875H53.125V109.792Z" fill="#1B1C1E"/>
<path d="M60.2083 109.792H53.125V116.875H60.2083V109.792Z" fill="#1B1C1E"/>
<path d="M74.375 109.792H67.2917V116.875H74.375L74.375 109.792Z" fill="#1B1C1E"/>
<path d="M81.4583 109.792H74.375L74.375 116.875H81.4583V109.792Z" fill="#1B1C1E"/>
<path d="M88.5417 109.792H81.4583V116.875H88.5417L88.5417 109.792Z" fill="#1B1C1E"/>
<path d="M95.625 109.792H88.5417L88.5417 116.875H95.625V109.792Z" fill="#1B1C1E"/>
<path d="M138.125 109.792H131.042V116.875H138.125V109.792Z" fill="#1B1C1E"/>
<path d="M145.208 109.792H138.125V116.875H145.208V109.792Z" fill="#1B1C1E"/>
<path d="M152.292 109.792H145.208V116.875H152.292V109.792Z" fill="#1B1C1E"/>
<path d="M17.7083 116.875H10.625V123.958H17.7083V116.875Z" fill="#1B1C1E"/>
<path d="M60.2083 116.875H53.125V123.958H60.2083V116.875Z" fill="#1B1C1E"/>
<path d="M74.375 116.875H67.2917V123.958H74.375V116.875Z" fill="#1B1C1E"/>
<path d="M88.5417 116.875H81.4583L81.4583 123.958H88.5417V116.875Z" fill="#1B1C1E"/>
<path d="M102.708 116.875H95.625V123.958H102.708V116.875Z" fill="#1B1C1E"/>
<path d="M109.792 116.875H102.708V123.958H109.792V116.875Z" fill="#1B1C1E"/>
<path d="M123.958 116.875H116.875V123.958H123.958V116.875Z" fill="#1B1C1E"/>
<path d="M138.125 116.875H131.042V123.958H138.125V116.875Z" fill="#1B1C1E"/>
<path d="M145.208 116.875H138.125V123.958H145.208V116.875Z" fill="#1B1C1E"/>
<path d="M152.292 116.875H145.208V123.958H152.292V116.875Z" fill="#1B1C1E"/>
<path d="M17.7083 123.958H10.625V131.042H17.7083V123.958Z" fill="#1B1C1E"/>
<path d="M31.875 123.958H24.7917V131.042H31.875V123.958Z" fill="#1B1C1E"/>
<path d="M38.9583 123.958H31.875V131.042H38.9583V123.958Z" fill="#1B1C1E"/>
<path d="M46.0417 123.958H38.9583V131.042H46.0417V123.958Z" fill="#1B1C1E"/>
<path d="M60.2083 123.958H53.125V131.042H60.2083V123.958Z" fill="#1B1C1E"/>
<path d="M74.375 123.958H67.2917V131.042H74.375V123.958Z" fill="#1B1C1E"/>
<path d="M116.875 123.958H109.792V131.042H116.875V123.958Z" fill="#1B1C1E"/>
<path d="M123.958 123.958H116.875V131.042H123.958V123.958Z" fill="#1B1C1E"/>
<path d="M131.042 123.958H123.958V131.042H131.042V123.958Z" fill="#1B1C1E"/>
<path d="M152.292 123.958H145.208V131.042H152.292V123.958Z" fill="#1B1C1E"/>
<path d="M159.375 123.958H152.292V131.042H159.375V123.958Z" fill="#1B1C1E"/>
<path d="M17.7083 131.042H10.625V138.125H17.7083V131.042Z" fill="#1B1C1E"/>
<path d="M31.875 131.042H24.7917V138.125H31.875V131.042Z" fill="#1B1C1E"/>
<path d="M38.9583 131.042H31.875V138.125H38.9583V131.042Z" fill="#1B1C1E"/>
<path d="M46.0417 131.042H38.9583V138.125H46.0417V131.042Z" fill="#1B1C1E"/>
<path d="M60.2083 131.042H53.125V138.125H60.2083V131.042Z" fill="#1B1C1E"/>
<path d="M74.375 131.042H67.2917V138.125H74.375V131.042Z" fill="#1B1C1E"/>
<path d="M88.5417 131.042H81.4583V138.125H88.5417V131.042Z" fill="#1B1C1E"/>
<path d="M95.625 131.042H88.5417V138.125H95.625V131.042Z" fill="#1B1C1E"/>
<path d="M116.875 131.042H109.792V138.125H116.875V131.042Z" fill="#1B1C1E"/>
<path d="M123.958 131.042H116.875V138.125H123.958V131.042Z" fill="#1B1C1E"/>
<path d="M145.208 131.042H138.125V138.125H145.208V131.042Z" fill="#1B1C1E"/>
<path d="M152.292 131.042H145.208V138.125H152.292V131.042Z" fill="#1B1C1E"/>
<path d="M17.7083 138.125H10.625V145.208H17.7083V138.125Z" fill="#1B1C1E"/>
<path d="M31.875 138.125H24.7917V145.208H31.875V138.125Z" fill="#1B1C1E"/>
<path d="M38.9583 138.125H31.875V145.208H38.9583V138.125Z" fill="#1B1C1E"/>
<path d="M46.0417 138.125H38.9583V145.208H46.0417V138.125Z" fill="#1B1C1E"/>
<path d="M60.2083 138.125H53.125V145.208H60.2083V138.125Z" fill="#1B1C1E"/>
<path d="M74.375 138.125H67.2917V145.208H74.375V138.125Z" fill="#1B1C1E"/>
<path d="M81.4583 138.125H74.375V145.208H81.4583L81.4583 138.125Z" fill="#1B1C1E"/>
<path d="M95.625 138.125H88.5417L88.5417 145.208H95.625V138.125Z" fill="#1B1C1E"/>
<path d="M109.792 138.125H102.708V145.208H109.792V138.125Z" fill="#1B1C1E"/>
<path d="M116.875 138.125H109.792V145.208H116.875V138.125Z" fill="#1B1C1E"/>
<path d="M123.958 138.125H116.875V145.208H123.958V138.125Z" fill="#1B1C1E"/>
<path d="M138.125 138.125H131.042V145.208H138.125V138.125Z" fill="#1B1C1E"/>
<path d="M145.208 138.125H138.125V145.208H145.208V138.125Z" fill="#1B1C1E"/>
<path d="M152.292 138.125H145.208V145.208H152.292V138.125Z" fill="#1B1C1E"/>
<path d="M17.7083 145.208H10.625V152.292H17.7083V145.208Z" fill="#1B1C1E"/>
<path d="M60.2083 145.208H53.125V152.292H60.2083V145.208Z" fill="#1B1C1E"/>
<path d="M88.5417 145.208H81.4583L81.4583 152.292H88.5417L88.5417 145.208Z" fill="#1B1C1E"/>
<path d="M95.625 145.208H88.5417L88.5417 152.292H95.625V145.208Z" fill="#1B1C1E"/>
<path d="M109.792 145.208H102.708V152.292H109.792V145.208Z" fill="#1B1C1E"/>
<path d="M116.875 145.208H109.792V152.292H116.875V145.208Z" fill="#1B1C1E"/>
<path d="M123.958 145.208H116.875V152.292H123.958V145.208Z" fill="#1B1C1E"/>
<path d="M131.042 145.208H123.958V152.292H131.042V145.208Z" fill="#1B1C1E"/>
<path d="M159.375 145.208H152.292V152.292H159.375V145.208Z" fill="#1B1C1E"/>
<path d="M17.7083 152.292H10.625V159.375H17.7083V152.292Z" fill="#1B1C1E"/>
<path d="M24.7917 152.292H17.7083V159.375H24.7917V152.292Z" fill="#1B1C1E"/>
<path d="M31.875 152.292H24.7917V159.375H31.875V152.292Z" fill="#1B1C1E"/>
<path d="M38.9583 152.292H31.875V159.375H38.9583V152.292Z" fill="#1B1C1E"/>
<path d="M46.0417 152.292H38.9583V159.375H46.0417V152.292Z" fill="#1B1C1E"/>
<path d="M53.125 152.292H46.0417V159.375H53.125V152.292Z" fill="#1B1C1E"/>
<path d="M60.2083 152.292H53.125V159.375H60.2083V152.292Z" fill="#1B1C1E"/>
<path d="M81.4583 152.292H74.375V159.375H81.4583L81.4583 152.292Z" fill="#1B1C1E"/>
<path d="M95.625 152.292H88.5417L88.5417 159.375H95.625V152.292Z" fill="#1B1C1E"/>
</g>
<defs>
<clipPath id="clip0_2327_4928">
<rect width="170" height="170" fill="white"/>
</clipPath>
</defs>
</svg>
