<svg width="32" height="32" viewBox="0 0 32 32" fill="none" xmlns="http://www.w3.org/2000/svg">
<path d="M16 2.66675C8.65335 2.66675 2.66669 8.65341 2.66669 16.0001C2.66669 23.3467 8.65335 29.3334 16 29.3334C23.3467 29.3334 29.3334 23.3467 29.3334 16.0001C29.3334 8.65341 23.3467 2.66675 16 2.66675ZM22.3734 12.9334L14.8134 20.4934C14.6267 20.6801 14.3734 20.7867 14.1067 20.7867C13.84 20.7867 13.5867 20.6801 13.4 20.4934L9.62669 16.7201C9.24002 16.3334 9.24002 15.6934 9.62669 15.3067C10.0134 14.9201 10.6534 14.9201 11.04 15.3067L14.1067 18.3734L20.96 11.5201C21.3467 11.1334 21.9867 11.1334 22.3734 11.5201C22.76 11.9067 22.76 12.5334 22.3734 12.9334Z" fill="#C2C9D1"/>
</svg>
