<svg width="70" height="70" viewBox="0 0 70 70" fill="none" xmlns="http://www.w3.org/2000/svg">
<path d="M46.025 5.83325H23.975C12.95 5.83325 10.2083 8.77908 10.2083 20.5333V53.3749C10.2083 61.1333 14.4667 62.9708 19.6292 57.4291L19.6583 57.3999C22.05 54.8624 25.6958 55.0666 27.7667 57.8374L30.7125 61.7749C33.075 64.8958 36.8958 64.8958 39.2583 61.7749L42.2042 57.8374C44.3042 55.0374 47.95 54.8333 50.3417 57.3999C55.5333 62.9416 59.7625 61.1041 59.7625 53.3458V20.5333C59.7917 8.77908 57.05 5.83325 46.025 5.83325ZM43.0208 31.3541H26.9792C25.7833 31.3541 24.7917 30.3624 24.7917 29.1666C24.7917 27.9708 25.7833 26.9791 26.9792 26.9791H43.0208C44.2167 26.9791 45.2083 27.9708 45.2083 29.1666C45.2083 30.3624 44.2167 31.3541 43.0208 31.3541Z" fill="url(#paint0_linear_2780_2468)"/>
<defs>
<linearGradient id="paint0_linear_2780_2468" x1="10.2083" y1="34.9744" x2="59.7627" y2="34.9744" gradientUnits="userSpaceOnUse">
<stop stop-color="#0052D4"/>
<stop offset="0.5" stop-color="#4364F7"/>
<stop offset="1" stop-color="#6FB1FC"/>
</linearGradient>
</defs>
</svg>
