<svg width="121" height="42" viewBox="0 0 121 42" fill="none" xmlns="http://www.w3.org/2000/svg">
<path d="M12 15.4L16.284 28H19.506L23.772 15.4H20.982L17.886 24.724L14.862 15.4H12ZM26.9813 15.31C26.6933 15.04 26.3513 14.896 25.9373 14.896C25.5053 14.896 25.1633 15.04 24.8753 15.31C24.5873 15.58 24.4613 15.922 24.4613 16.318C24.4613 16.732 24.5873 17.074 24.8753 17.344C25.1633 17.632 25.5053 17.758 25.9373 17.758C26.3513 17.758 26.6933 17.632 26.9813 17.344C27.2513 17.074 27.3953 16.732 27.3953 16.318C27.3953 15.922 27.2513 15.58 26.9813 15.31ZM24.6593 18.748V28H27.1973V18.748H24.6593ZM29.182 20.89C28.786 21.61 28.606 22.438 28.606 23.392C28.606 24.346 28.804 25.174 29.2 25.894C29.596 26.614 30.172 27.154 30.928 27.532C31.684 27.928 32.566 28.108 33.61 28.108C34.402 28.108 35.104 27.982 35.716 27.694C36.328 27.406 36.814 27.028 37.192 26.524C37.552 26.038 37.786 25.48 37.894 24.868H35.392C35.284 25.3 35.05 25.642 34.708 25.858C34.366 26.074 33.934 26.182 33.43 26.182C32.782 26.182 32.26 26.002 31.9 25.606C31.522 25.228 31.306 24.706 31.252 24.022V23.95H37.966C38.002 23.698 38.038 23.41 38.038 23.086C38.02 22.186 37.804 21.412 37.408 20.746C37.012 20.08 36.454 19.558 35.734 19.198C35.014 18.838 34.204 18.64 33.268 18.64C32.332 18.64 31.522 18.838 30.82 19.234C30.118 19.63 29.578 20.17 29.182 20.89ZM35.5 22.294H31.306C31.378 21.754 31.594 21.34 31.972 21.016C32.35 20.692 32.818 20.53 33.376 20.53C33.952 20.53 34.42 20.692 34.798 20.998C35.176 21.304 35.41 21.736 35.5 22.294ZM38.2793 18.748L41.3033 28H44.0033L45.6593 22.42L47.2793 28H49.9793L53.0213 18.748H50.4293L48.5393 25.282L46.8473 18.748H44.5613L42.8153 25.264L40.9613 18.748H38.2793ZM67.4822 25.858H67.1942C66.9782 25.858 66.8342 25.822 66.7442 25.732C66.6362 25.66 66.6002 25.498 66.6002 25.264V22.006C66.6002 20.926 66.2402 20.08 65.5202 19.504C64.8002 18.928 63.7922 18.64 62.4962 18.64C61.2362 18.64 60.2462 18.91 59.4902 19.432C58.7342 19.954 58.3022 20.692 58.2302 21.628H60.6782C60.7322 21.286 60.9122 21.016 61.2182 20.8C61.5062 20.602 61.9022 20.494 62.3702 20.494C62.8922 20.494 63.3062 20.62 63.6302 20.872C63.9362 21.124 64.0982 21.448 64.0982 21.862V22.312H62.2622C60.8762 22.312 59.8142 22.582 59.0942 23.122C58.3742 23.662 58.0142 24.418 58.0142 25.39C58.0142 26.254 58.3202 26.938 58.9502 27.406C59.5802 27.874 60.4082 28.108 61.4522 28.108C62.1362 28.108 62.7302 27.982 63.2342 27.694C63.7202 27.424 64.1342 27.028 64.4762 26.488C64.4402 27.496 65.0162 28 66.1862 28H67.4822V25.858ZM64.0982 24.004V24.184C64.0802 24.832 63.8822 25.336 63.5042 25.714C63.1082 26.092 62.5862 26.272 61.9382 26.272C61.5062 26.272 61.1822 26.182 60.9302 25.984C60.6782 25.804 60.5702 25.534 60.5702 25.21C60.5702 24.832 60.7142 24.544 61.0022 24.328C61.2902 24.112 61.7042 24.004 62.2442 24.004H64.0982ZM68.464 15.4V28H71.002V15.4H68.464ZM72.7707 15.4V28H75.3087V15.4H72.7707Z" fill="#0F5CA8"/>
<path d="M99.43 13.9299L105.5 19.9999L99.43 26.0699" stroke="#0F5CA8" stroke-width="1.5" stroke-miterlimit="10" stroke-linecap="round" stroke-linejoin="round"/>
<path d="M88.5 20H105.33" stroke="#0F5CA8" stroke-width="1.5" stroke-miterlimit="10" stroke-linecap="round" stroke-linejoin="round"/>
</svg>
