<svg width="296" height="188" viewBox="0 0 296 188" fill="none" xmlns="http://www.w3.org/2000/svg">
<g filter="url(#filter0_d_2668_5296)">
<g clip-path="url(#clip0_2668_5296)">
<rect x="36.0359" y="69.6431" width="334" height="176" rx="15" transform="rotate(-23.5863 36.0359 69.6431)" fill="url(#paint0_linear_2668_5296)"/>
<path d="M112.545 192.056L108.776 193.702L113.258 203.966L117.158 202.263C118.375 201.732 119.205 201.073 119.641 200.271C120.083 199.485 120.113 198.634 119.722 197.739C119.133 196.39 118.004 195.923 116.364 196.325C116.922 195.924 117.276 195.455 117.426 194.918C117.575 194.382 117.527 193.792 117.258 193.176C116.893 192.34 116.283 191.821 115.462 191.621C114.641 191.42 113.659 191.57 112.545 192.056ZM112.364 197.32L111.077 194.373L113.203 193.445C113.775 193.195 114.273 193.135 114.71 193.258C115.148 193.381 115.463 193.663 115.662 194.117C115.867 194.586 115.859 195.009 115.652 195.414C115.444 195.818 115.062 196.142 114.49 196.392L112.364 197.32ZM114.323 201.807L112.972 198.713L115.201 197.74C115.846 197.459 116.423 197.381 116.905 197.485C117.379 197.61 117.736 197.908 117.953 198.407C118.165 198.89 118.141 199.355 117.904 199.772C117.667 200.19 117.212 200.546 116.552 200.834L114.323 201.807ZM123.749 198.932C124.476 198.998 125.2 198.857 125.962 198.524C126.71 198.197 127.306 197.762 127.752 197.184C128.197 196.605 128.445 195.973 128.512 195.246C128.578 194.518 128.445 193.773 128.112 193.011C127.786 192.263 127.336 191.674 126.758 191.228C126.179 190.782 125.541 190.52 124.813 190.453C124.086 190.387 123.356 190.514 122.608 190.84C121.845 191.173 121.256 191.622 120.81 192.201C120.364 192.78 120.123 193.426 120.056 194.154C119.99 194.881 120.131 195.605 120.458 196.353C120.791 197.115 121.232 197.726 121.811 198.172C122.389 198.617 123.021 198.865 123.749 198.932ZM126.671 195.788C126.465 196.436 126.033 196.887 125.373 197.175C124.699 197.469 124.075 197.48 123.474 197.183C122.859 196.893 122.406 196.375 122.086 195.642C121.765 194.909 121.7 194.239 121.906 193.591C122.097 192.949 122.522 192.484 123.197 192.189C123.857 191.901 124.487 191.905 125.102 192.195C125.718 192.485 126.179 192.982 126.499 193.715C126.819 194.448 126.877 195.139 126.671 195.788ZM126.543 185.944L131.025 196.209L132.608 195.517L128.127 185.253L126.543 185.944ZM137.613 184.393L136.03 185.085L137.656 188.809C137.995 189.586 138.088 190.279 137.943 190.866C137.783 191.46 137.41 191.885 136.808 192.147C136.222 192.403 135.713 192.398 135.254 192.145C134.794 191.892 134.404 191.399 134.084 190.666L132.349 186.692L130.765 187.383L132.571 191.518C133.102 192.735 133.75 193.5 134.544 193.799C135.33 194.119 136.164 194.07 137.044 193.686C138.011 193.263 138.641 192.586 138.906 191.633L139.498 192.509L140.891 191.901L137.613 184.393ZM138.455 184.026L144.188 190.479L145.898 189.715L145.312 183.895L149.123 188.307L150.824 187.564L150.039 178.968L148.426 179.672L149.162 186.195L145.01 181.164L143.558 181.798L144.352 188.295L140.127 183.296L138.455 184.026ZM160.419 181.734L160.111 181.868C159.774 182.016 159.536 181.91 159.382 181.558L158.089 178.596C157.705 177.716 157.132 177.164 156.384 176.931C155.622 176.705 154.743 176.81 153.745 177.245C152.792 177.661 152.126 178.214 151.719 178.881C151.311 179.548 151.23 180.281 151.483 181.061L153.038 180.383C152.955 180.034 153.016 179.694 153.22 179.36C153.423 179.027 153.76 178.758 154.229 178.553C154.742 178.329 155.211 178.282 155.606 178.388C156.002 178.495 156.296 178.768 156.475 179.179L156.674 179.633L154.782 180.459C153.726 180.92 153.03 181.486 152.667 182.133C152.289 182.787 152.288 183.503 152.621 184.266C152.922 184.955 153.408 185.389 154.087 185.546C154.759 185.724 155.516 185.62 156.367 185.249C157.452 184.775 158.088 183.991 158.282 182.877C158.455 183.273 158.685 183.521 158.995 183.63C159.29 183.746 159.686 183.695 160.185 183.477L161.021 183.112L160.419 181.734ZM157.186 180.806L157.301 181.07C157.542 181.663 157.557 182.216 157.344 182.728C157.131 183.239 156.694 183.64 156.049 183.921C155.609 184.113 155.234 184.173 154.895 184.076C154.562 183.994 154.33 183.782 154.189 183.459C154.029 183.092 154.039 182.756 154.22 182.45C154.4 182.144 154.722 181.882 155.221 181.664L157.186 180.806ZM159.698 176.41L161.477 180.486C161.785 181.19 162.17 181.633 162.634 181.815C163.103 182.011 163.702 181.942 164.42 181.628L165.945 180.962L165.337 179.569L164.135 180.094C163.841 180.222 163.625 180.247 163.457 180.181C163.288 180.115 163.133 179.92 163.005 179.627L161.296 175.712L163.1 174.925L162.491 173.532L160.688 174.319L159.772 172.222L158.174 172.92L159.089 175.017L157.784 175.587L158.393 176.98L159.698 176.41ZM163.807 169.71C163.54 169.617 163.261 169.617 162.997 169.732C162.718 169.854 162.528 170.059 162.429 170.311C162.315 170.571 162.33 170.844 162.445 171.108C162.567 171.386 162.757 171.582 163.024 171.675C163.277 171.774 163.55 171.76 163.829 171.638C164.093 171.523 164.289 171.333 164.403 171.073C164.502 170.821 164.502 170.541 164.381 170.262C164.265 169.999 164.06 169.809 163.807 169.71ZM163.517 173.084L166.795 180.591L168.379 179.9L165.101 172.392L163.517 173.084ZM167.137 171.503L165.832 172.073L166.44 173.466L167.745 172.896L170.415 179.011L172.013 178.313L169.344 172.198L171.352 171.321L170.744 169.928L168.735 170.805L168.46 170.175C168.351 169.926 168.312 169.716 168.378 169.547C168.444 169.379 168.595 169.243 168.859 169.128L170.164 168.558L169.555 167.165L168.03 167.831C167.312 168.145 166.861 168.551 166.671 169.036C166.466 169.526 166.523 170.095 166.811 170.755L167.137 171.503ZM172.159 171.388C172.107 172.109 172.255 172.848 172.588 173.61C172.921 174.373 173.362 174.983 173.934 175.414C174.513 175.86 175.145 176.108 175.872 176.174C176.6 176.241 177.338 176.093 178.13 175.747C179.024 175.357 179.67 174.795 180.053 174.034C180.443 173.288 180.535 172.497 180.348 171.671L178.765 172.362C178.833 172.839 178.754 173.257 178.534 173.633C178.299 174.015 177.933 174.297 177.449 174.508C176.833 174.777 176.252 174.804 175.719 174.583C175.171 174.368 174.742 173.944 174.424 173.297L174.386 173.209L180.046 170.738C179.985 170.52 179.917 170.323 179.827 170.118C179.499 169.406 179.062 168.845 178.503 168.444C177.95 168.057 177.339 167.817 176.654 167.767C175.968 167.717 175.274 167.846 174.555 168.16C173.837 168.473 173.277 168.91 172.86 169.476C172.444 170.042 172.211 170.667 172.159 171.388ZM177.971 170.265L173.939 172.025C173.767 171.472 173.793 170.972 174.033 170.483C174.274 169.994 174.643 169.64 175.171 169.41C175.728 169.166 176.253 169.129 176.754 169.277C177.255 169.425 177.661 169.754 177.971 170.265ZM194.65 165.514C194.715 164.543 194.545 163.552 194.109 162.555C193.674 161.558 193.063 160.76 192.307 160.147C191.536 159.541 190.681 159.181 189.72 159.06C188.765 158.953 187.812 159.089 186.845 159.512C185.877 159.934 185.114 160.547 184.544 161.32C183.98 162.107 183.662 162.979 183.597 163.95C183.518 164.928 183.703 165.912 184.138 166.909C184.574 167.906 185.169 168.711 185.94 169.317C186.697 169.929 187.558 170.304 188.513 170.411C189.474 170.532 190.435 170.375 191.403 169.952C192.371 169.53 193.125 168.938 193.689 168.151C194.26 167.378 194.571 166.491 194.65 165.514ZM187.124 167.91C186.596 167.459 186.182 166.872 185.868 166.153C185.561 165.449 185.411 164.747 185.44 164.053C185.455 163.366 185.644 162.76 186.001 162.219C186.359 161.679 186.846 161.275 187.491 160.993C188.122 160.718 188.749 160.636 189.389 160.741C190.028 160.845 190.601 161.119 191.13 161.569C191.643 162.026 192.072 162.607 192.379 163.311C192.693 164.029 192.828 164.738 192.813 165.426C192.785 166.119 192.595 166.725 192.238 167.266C191.88 167.806 191.387 168.196 190.756 168.471C190.111 168.753 189.49 168.849 188.85 168.745C188.211 168.64 187.638 168.366 187.124 167.91ZM193.187 156.848L197.668 167.112L199.252 166.42L194.77 156.156L193.187 156.848ZM204.257 155.297L202.673 155.988L204.299 159.712C204.639 160.49 204.732 161.182 204.586 161.769C204.427 162.363 204.053 162.788 203.452 163.05C202.866 163.306 202.357 163.301 201.897 163.048C201.438 162.795 201.048 162.302 200.728 161.569L198.993 157.595L197.409 158.286L199.215 162.421C199.746 163.638 200.394 164.403 201.188 164.702C201.974 165.023 202.808 164.973 203.687 164.589C204.655 164.166 205.285 163.49 205.55 162.536L206.142 163.412L207.535 162.804L204.257 155.297ZM205.099 154.929L210.832 161.382L212.541 160.618L211.956 154.798L215.767 159.21L217.468 158.467L216.683 149.871L215.07 150.575L215.805 157.098L211.654 152.067L210.202 152.701L210.996 159.198L206.771 154.199L205.099 154.929ZM227.063 152.637L226.755 152.771C226.418 152.919 226.179 152.813 226.026 152.461L224.733 149.499C224.348 148.619 223.775 148.067 223.028 147.834C222.266 147.608 221.386 147.713 220.389 148.148C219.436 148.564 218.77 149.117 218.362 149.784C217.955 150.451 217.874 151.184 218.127 151.964L219.681 151.286C219.599 150.937 219.66 150.597 219.864 150.263C220.067 149.93 220.404 149.661 220.873 149.456C221.386 149.232 221.854 149.185 222.25 149.291C222.646 149.398 222.94 149.671 223.119 150.082L223.317 150.536L221.426 151.362C220.37 151.823 219.674 152.389 219.311 153.036C218.933 153.69 218.931 154.406 219.264 155.169C219.565 155.858 220.051 156.292 220.731 156.449C221.402 156.627 222.16 156.523 223.011 156.152C224.096 155.678 224.731 154.895 224.925 153.78C225.098 154.176 225.329 154.424 225.639 154.533C225.933 154.649 226.33 154.598 226.829 154.38L227.665 154.015L227.063 152.637ZM223.829 151.709L223.945 151.973C224.186 152.566 224.2 153.119 223.987 153.631C223.774 154.143 223.338 154.543 222.693 154.824C222.253 155.016 221.877 155.076 221.538 154.979C221.206 154.897 220.973 154.685 220.832 154.362C220.672 153.995 220.683 153.659 220.863 153.353C221.044 153.048 221.366 152.785 221.865 152.567L223.829 151.709ZM225.733 145.92L224.428 146.49L225.036 147.883L226.341 147.313L229.011 153.427L230.609 152.73L227.94 146.615L229.949 145.738L229.34 144.345L227.331 145.222L227.056 144.592C226.947 144.342 226.908 144.132 226.974 143.964C227.04 143.795 227.191 143.66 227.455 143.545L228.76 142.975L228.151 141.582L226.626 142.248C225.908 142.561 225.457 142.968 225.267 143.452C225.062 143.943 225.119 144.512 225.407 145.172L225.733 145.92ZM230.755 145.805C230.703 146.526 230.851 147.264 231.184 148.027C231.517 148.789 231.958 149.4 232.53 149.831C233.109 150.277 233.741 150.524 234.468 150.591C235.196 150.657 235.934 150.51 236.726 150.164C237.621 149.773 238.266 149.212 238.649 148.451C239.039 147.705 239.131 146.914 238.944 146.088L237.361 146.779C237.429 147.256 237.35 147.674 237.13 148.05C236.895 148.432 236.529 148.713 236.045 148.925C235.43 149.194 234.848 149.221 234.315 148.999C233.767 148.785 233.338 148.361 233.02 147.714L232.982 147.626L238.642 145.155C238.582 144.937 238.513 144.74 238.423 144.534C238.095 143.822 237.658 143.262 237.099 142.861C236.546 142.473 235.935 142.234 235.25 142.184C234.564 142.134 233.87 142.263 233.151 142.576C232.433 142.89 231.873 143.327 231.456 143.892C231.04 144.458 230.807 145.084 230.755 145.805ZM236.567 144.681L232.535 146.442C232.363 145.889 232.389 145.388 232.629 144.899C232.87 144.41 233.239 144.057 233.767 143.826C234.324 143.583 234.849 143.546 235.35 143.694C235.851 143.842 236.257 144.171 236.567 144.681ZM249.169 136.543C248.41 136.246 247.629 136.255 246.808 136.614C246.192 136.883 245.736 137.239 245.413 137.659C245.076 138.086 244.886 138.57 244.808 139.111C244.389 138.752 243.934 138.549 243.436 138.488C242.929 138.447 242.423 138.528 241.895 138.759C240.963 139.183 240.384 139.855 240.163 140.789L239.558 139.884L238.18 140.486L241.458 147.993L243.041 147.302L241.287 143.284C240.993 142.609 240.909 142.018 241.052 141.466C241.202 140.929 241.538 140.538 242.08 140.302C242.593 140.078 243.066 140.081 243.477 140.303C243.889 140.525 244.253 140.959 244.541 141.619L246.385 145.842L247.983 145.144L246.21 141.083C245.915 140.408 245.831 139.816 245.987 139.294C246.144 138.772 246.479 138.381 247.036 138.138C247.55 137.914 248.022 137.917 248.434 138.139C248.851 138.375 249.201 138.816 249.482 139.462L251.326 143.685L252.91 142.993L251.06 138.755C250.548 137.582 249.912 136.847 249.169 136.543ZM251.358 131.485C251.09 131.392 250.811 131.392 250.547 131.507C250.268 131.629 250.079 131.834 249.98 132.087C249.866 132.346 249.88 132.619 249.995 132.883C250.117 133.161 250.307 133.357 250.575 133.45C250.828 133.549 251.101 133.535 251.379 133.413C251.643 133.298 251.839 133.108 251.953 132.848C252.052 132.596 252.053 132.316 251.931 132.038C251.816 131.774 251.611 131.584 251.358 131.485ZM251.068 134.859L254.346 142.366L255.929 141.675L252.651 134.167L251.068 134.859Z" fill="#1B1C1E"/>
<path d="M100.036 175.913L101.026 175.481L100.932 173.047L104.286 171.582L106.008 173.306L107.031 172.859L100.744 166.438L99.6114 166.933L100.036 175.913ZM100.839 172.053L100.606 167.742L103.621 170.838L100.839 172.053ZM111.5 170.358C111.775 169.819 111.834 169.204 111.681 168.524L110.78 168.918C110.855 169.33 110.809 169.704 110.625 170.033C110.435 170.378 110.137 170.625 109.73 170.803C109.191 171.038 108.67 171.043 108.172 170.803C107.674 170.562 107.288 170.128 107.019 169.512C106.755 168.907 106.704 168.34 106.866 167.811C107.033 167.293 107.386 166.903 107.925 166.668C108.321 166.495 108.699 166.461 109.076 166.545C109.447 166.645 109.759 166.849 110 167.163L110.913 166.764C110.534 166.196 110.048 165.833 109.466 165.668C108.883 165.503 108.267 165.563 107.607 165.851C107.058 166.091 106.637 166.418 106.325 166.843C106.013 167.267 105.827 167.741 105.783 168.271C105.744 168.811 105.851 169.354 106.095 169.915C106.345 170.487 106.671 170.934 107.094 171.273C107.506 171.617 107.969 171.808 108.493 171.867C109.005 171.931 109.531 171.846 110.081 171.606C110.741 171.318 111.214 170.902 111.5 170.358ZM117.428 167.769C117.704 167.23 117.762 166.615 117.61 165.936L116.708 166.329C116.783 166.742 116.737 167.115 116.553 167.444C116.363 167.789 116.066 168.037 115.659 168.215C115.12 168.45 114.598 168.455 114.1 168.214C113.602 167.973 113.216 167.539 112.948 166.924C112.683 166.319 112.632 165.752 112.794 165.223C112.961 164.705 113.314 164.315 113.853 164.08C114.249 163.907 114.627 163.873 115.004 163.957C115.375 164.057 115.687 164.261 115.929 164.575L116.841 164.176C116.463 163.608 115.976 163.244 115.394 163.08C114.811 162.915 114.196 162.974 113.536 163.262C112.986 163.502 112.566 163.83 112.254 164.254C111.941 164.679 111.755 165.153 111.712 165.682C111.673 166.223 111.779 166.766 112.024 167.327C112.273 167.899 112.6 168.346 113.023 168.685C113.435 169.029 113.898 169.219 114.421 169.279C114.934 169.343 115.459 169.258 116.009 169.017C116.669 168.729 117.142 168.313 117.428 167.769ZM120.382 166.676C120.906 166.736 121.443 166.645 121.993 166.405C122.531 166.17 122.962 165.838 123.275 165.413C123.587 164.989 123.773 164.515 123.823 163.969C123.866 163.44 123.771 162.892 123.522 162.32C123.277 161.759 122.94 161.317 122.517 160.978C122.088 160.655 121.609 160.458 121.085 160.398C120.562 160.339 120.025 160.429 119.486 160.664C118.936 160.905 118.505 161.237 118.193 161.661C117.881 162.086 117.7 162.571 117.656 163.1C117.606 163.646 117.712 164.189 117.957 164.75C118.207 165.321 118.533 165.768 118.962 166.092C119.385 166.431 119.859 166.617 120.382 166.676ZM122.495 164.916C122.285 165.217 122.005 165.444 121.642 165.602C121.268 165.766 120.911 165.817 120.548 165.766C120.185 165.715 119.871 165.564 119.577 165.312C119.289 165.071 119.054 164.742 118.881 164.346C118.708 163.95 118.631 163.565 118.646 163.179C118.665 162.804 118.764 162.459 118.973 162.159C119.182 161.858 119.463 161.631 119.837 161.467C120.2 161.309 120.557 161.258 120.92 161.309C121.282 161.36 121.613 161.517 121.901 161.757C122.194 162.009 122.425 162.327 122.598 162.723C122.771 163.119 122.852 163.516 122.833 163.891C122.818 164.277 122.704 164.615 122.495 164.916ZM128.159 156.956L127.257 157.35L128.482 160.154C128.76 160.792 128.822 161.354 128.695 161.842C128.572 162.341 128.242 162.694 127.736 162.915C127.263 163.122 126.838 163.137 126.451 162.94C126.063 162.742 125.75 162.355 125.496 161.772L124.156 158.704L123.254 159.098L124.618 162.221C125.002 163.101 125.483 163.663 126.068 163.893C126.646 164.138 127.272 164.1 127.943 163.807C128.712 163.471 129.191 162.948 129.38 162.211L129.827 162.906L130.608 162.565L128.159 156.956ZM134.017 155.054C133.421 154.829 132.791 154.855 132.109 155.153C131.295 155.508 130.8 156.052 130.622 156.785L130.169 156.079L129.389 156.42L131.837 162.028L132.739 161.635L131.515 158.83C131.241 158.203 131.168 157.646 131.313 157.138C131.451 156.645 131.787 156.276 132.315 156.045C132.799 155.834 133.24 155.825 133.639 156.017C134.037 156.21 134.361 156.592 134.611 157.164L135.95 160.232L136.852 159.839L135.489 156.715C135.104 155.836 134.617 155.289 134.017 155.054ZM136.287 154.39L137.737 157.711C137.958 158.217 138.231 158.543 138.552 158.678C138.878 158.823 139.311 158.765 139.839 158.535L140.872 158.084L140.512 157.259L139.533 157.686C139.303 157.787 139.118 157.815 138.987 157.754C138.856 157.694 138.74 157.548 138.634 157.306L137.189 153.996L138.608 153.376L138.248 152.552L136.829 153.171L136.142 151.598L135.241 151.992L135.927 153.565L134.915 154.007L135.275 154.831L136.287 154.39ZM144.524 156.489L145.459 156.081L142.866 150.142L149.594 154.276L150.474 153.892L147.113 146.193L146.178 146.601L148.771 152.54L142.043 148.407L141.163 148.791L144.524 156.489ZM156.72 150.182L156.446 150.302C156.193 150.413 156.014 150.333 155.894 150.059L154.838 147.639C154.554 146.99 154.14 146.582 153.591 146.403C153.041 146.224 152.415 146.288 151.7 146.6C151.018 146.898 150.535 147.292 150.252 147.782C149.968 148.272 149.914 148.807 150.088 149.386L150.989 148.992C150.92 148.682 150.978 148.395 151.154 148.108C151.33 147.822 151.61 147.595 152.006 147.422C152.446 147.23 152.835 147.191 153.163 147.283C153.497 147.387 153.753 147.615 153.912 147.978L154.08 148.363L152.43 149.083C151.693 149.405 151.2 149.804 150.945 150.268C150.694 150.744 150.694 151.255 150.939 151.816C151.16 152.322 151.525 152.647 152.023 152.77C152.527 152.903 153.095 152.826 153.722 152.552C154.536 152.197 155.028 151.615 155.195 150.796C155.319 151.082 155.503 151.263 155.72 151.339C155.941 151.426 156.223 151.381 156.586 151.223L157.081 151.007L156.72 150.182ZM154.411 149.122L154.531 149.396C154.743 149.88 154.746 150.337 154.563 150.758C154.368 151.183 154.002 151.513 153.452 151.753C153.078 151.916 152.748 151.969 152.451 151.889C152.159 151.82 151.953 151.648 151.828 151.362C151.559 150.747 151.838 150.245 152.674 149.88L154.411 149.122ZM163.342 142.224C162.773 142.001 162.181 142.024 161.554 142.297C160.652 142.691 160.162 143.337 160.073 144.214C159.765 143.929 159.408 143.771 159.024 143.73C158.639 143.688 158.233 143.748 157.837 143.92C157.144 144.223 156.719 144.749 156.563 145.472L156.106 144.755L155.325 145.096L157.774 150.704L158.676 150.311L157.384 147.352C157.139 146.791 157.074 146.283 157.185 145.816C157.295 145.349 157.581 145.014 158.043 144.812C158.472 144.625 158.864 144.624 159.231 144.804C159.587 144.989 159.89 145.355 160.125 145.893L161.513 149.072L162.415 148.678L161.104 145.676C160.854 145.104 160.789 144.595 160.909 144.15C161.029 143.705 161.331 143.377 161.804 143.17C162.222 142.988 162.614 142.987 162.97 143.172C163.326 143.357 163.629 143.722 163.865 144.261L165.252 147.439L166.154 147.045L164.742 143.812C164.377 142.976 163.911 142.447 163.342 142.224ZM165.561 142.172C165.533 142.708 165.639 143.251 165.888 143.822C166.138 144.394 166.464 144.841 166.887 145.18C167.31 145.519 167.784 145.705 168.308 145.765C168.831 145.824 169.363 145.723 169.924 145.478C170.562 145.2 171.024 144.788 171.305 144.233C171.587 143.678 171.655 143.085 171.516 142.466L170.603 142.864C170.662 143.27 170.6 143.638 170.401 143.961C170.201 144.283 169.903 144.531 169.508 144.704C168.98 144.935 168.49 144.952 168.027 144.761C167.553 144.575 167.196 144.208 166.945 143.662L166.911 143.586L171.266 141.684C171.2 141.503 171.158 141.378 171.12 141.29C170.863 140.76 170.535 140.34 170.138 140.029C169.734 139.734 169.291 139.561 168.8 139.514C168.312 139.478 167.803 139.569 167.297 139.79C166.769 140.021 166.36 140.343 166.069 140.758C165.768 141.178 165.593 141.647 165.561 142.172ZM170.027 141.335L166.64 142.814C166.491 142.355 166.509 141.915 166.714 141.485C166.913 141.071 167.224 140.764 167.653 140.577C168.126 140.371 168.58 140.33 169.003 140.459C169.426 140.589 169.776 140.881 170.027 141.335Z" fill="#778899"/>
<g clip-path="url(#clip1_2668_5296)">
<path d="M101.029 94.8446C101.034 94.7922 101.033 94.7395 101.035 94.6871L101.412 75.4145C101.415 75.2572 101.42 75.1002 101.422 74.9429C101.423 74.8887 101.426 74.84 101.487 74.8141C101.623 74.7548 101.759 74.6953 101.914 74.6276C101.916 74.7249 101.922 74.7951 101.919 74.8664C101.792 81.7559 101.666 88.6451 101.539 95.534C101.534 95.8086 101.525 96.0841 101.525 96.3587C101.525 96.601 101.624 96.7932 101.847 96.9015C101.946 96.9541 102.059 96.9771 102.171 96.9676C102.282 96.9582 102.389 96.9168 102.478 96.8484C102.679 96.7078 102.722 96.5075 102.726 96.282C102.857 89.4173 102.988 82.5541 103.118 75.6924C103.13 75.0374 103.136 74.3837 103.157 73.7276C103.167 73.3643 102.867 72.9906 102.435 73.0815L102.42 73.0452L100.437 73.9109C100.441 73.9157 100.444 73.9213 100.446 73.9274C100.448 73.9336 100.449 73.94 100.448 73.9464C100.253 74.0878 100.206 74.2901 100.198 74.5141C100.183 75.2807 100.169 76.0471 100.154 76.8134C100.056 82.2745 99.9551 87.7355 99.8515 93.1964C99.8504 93.2748 99.8472 93.3528 99.8446 93.4443C99.7381 93.4253 99.6971 93.3345 99.6245 93.2897C99.3756 93.1364 99.3244 92.9172 99.33 92.6287C99.4384 87.0108 99.5389 81.393 99.6317 75.7754C99.6345 75.5987 99.6396 75.4217 99.6426 75.2469C99.6471 74.8285 99.3267 74.552 98.9116 74.6134C98.9052 74.6037 98.8968 74.5956 98.8868 74.5896L96.943 75.4383C96.9509 75.4483 96.9546 75.461 96.9532 75.4737C96.7578 75.6108 96.6927 75.8081 96.6886 76.0358C96.6729 76.9134 96.6564 77.7909 96.6392 78.6682L96.4223 90.2201C96.421 90.2724 96.4188 90.3244 96.4158 90.3925C96.2854 90.3368 96.2117 90.225 96.1092 90.1552C95.9177 90.0254 95.8659 89.8574 95.8708 89.6242C95.959 85.4135 96.0411 81.2029 96.117 76.9924C96.1205 76.8128 96.1071 76.6412 95.995 76.4879C95.9258 76.3874 95.827 76.3112 95.7123 76.2698C95.5976 76.2284 95.4728 76.224 95.3554 76.2571C95.2863 76.278 95.2188 76.3037 95.1534 76.3342C94.6486 76.5546 94.1479 76.7843 93.6379 76.9913C93.3074 77.1251 93.1666 77.3529 93.1619 77.7006C93.122 80.0243 93.0782 82.3486 93.0304 84.6735C93.0149 85.4987 92.9994 86.3238 92.9838 87.149C92.9832 87.2075 92.9772 87.2658 92.9724 87.3536C92.8004 87.1996 92.648 87.0606 92.4905 86.9231C92.4312 86.8698 92.4565 86.8004 92.4586 86.7406C92.4686 86.0528 92.4802 85.3651 92.4934 84.6775C92.5304 82.5951 92.5673 80.5126 92.6038 78.43C92.6096 78.1434 92.4737 77.9205 92.2325 77.815C92.1644 77.7819 92.0899 77.7638 92.0142 77.7619C91.9385 77.7599 91.8632 77.7742 91.7935 77.8037C91.1985 78.0635 90.6014 78.3183 90.0086 78.583C89.7529 78.6947 89.6534 78.9181 89.6482 79.1882L89.6188 80.7402C89.5982 81.8596 89.5766 82.9783 89.554 84.0963C89.5533 84.153 89.5689 84.2142 89.5241 84.275L88.6584 83.5053C87.7155 82.6639 86.7693 81.8252 85.8321 80.9774C85.6139 80.7774 85.3891 80.6163 85.08 80.6177L84.8276 80.7279C84.8079 80.8072 84.7358 80.8505 84.6964 80.9161C84.5685 81.1317 84.5516 81.3479 84.681 81.5677C84.7336 81.6429 84.7973 81.7095 84.8701 81.7654C86.3739 83.1104 87.8775 84.4549 89.3808 85.7988C89.4267 85.8339 89.4634 85.8796 89.4875 85.9321C89.5117 85.9845 89.5226 86.0421 89.5194 86.0997C89.4692 88.5349 89.4223 90.9696 89.3787 93.404C89.3845 93.4557 89.3774 93.5081 89.3581 93.5564C89.2864 93.5164 89.2216 93.4651 89.1661 93.4045C85.672 90.287 82.1779 87.169 78.6838 84.0506C78.6271 83.9964 78.566 83.9468 78.5013 83.9024C78.2288 83.7281 77.8932 83.7751 77.705 84.0144C77.4853 84.291 77.5044 84.6257 77.7554 84.8631C77.7987 84.9038 77.8435 84.9419 77.8871 84.9818L89.4294 95.3015C89.4773 95.3476 89.5276 95.3912 89.58 95.4321C89.9719 95.7193 90.4782 95.51 90.5549 95.0333C90.5659 94.9424 90.5707 94.8508 90.5694 94.7592L90.7198 87.2536C90.7136 87.1791 90.7198 87.1041 90.738 87.0316C90.8748 87.1153 90.9736 87.2397 91.0991 87.3322C91.2011 87.4068 91.225 87.4992 91.2217 87.6204C91.2047 88.2623 91.1933 88.9049 91.1836 89.5455C91.1397 91.8443 91.0959 94.1431 91.052 96.4419C91.0467 96.5337 91.0629 96.6255 91.0992 96.71C91.1355 96.7944 91.191 96.8693 91.2613 96.9286C91.3507 97.0061 91.4383 97.0851 91.5258 97.1641C91.9874 97.5812 92.45 97.9973 92.9094 98.4167C93.0638 98.5575 93.2364 98.632 93.4467 98.5978C93.7847 98.5426 93.9842 98.3127 93.993 97.958C94.0102 97.2178 94.0232 96.4783 94.0378 95.738C94.0723 93.9177 94.1081 92.0973 94.1452 90.2768C94.1464 90.218 94.1274 90.1536 94.1789 90.0931C94.2937 90.1956 94.3952 90.2992 94.5095 90.3855C94.6238 90.4718 94.6508 90.568 94.6488 90.7044C94.593 93.5906 94.5393 96.4777 94.4877 99.3656C94.4864 99.4376 94.4821 99.5101 94.4878 99.5816C94.4923 99.6656 94.5147 99.7477 94.5537 99.8222C94.5926 99.8968 94.647 99.9621 94.7134 100.014C94.7797 100.066 94.8563 100.102 94.9381 100.122C95.0199 100.142 95.105 100.143 95.1875 100.127C95.4842 100.08 95.6793 99.847 95.6868 99.5164C95.704 98.756 95.7185 97.9964 95.7302 97.2375C95.7651 95.4301 95.8005 93.6228 95.8363 91.8154C95.8376 91.7494 95.8144 91.6751 95.8739 91.6105C95.9579 91.6845 96.0365 91.7536 96.1146 91.8229C96.2761 91.9665 96.4336 92.1157 96.6006 92.2523C96.6854 92.3263 96.7893 92.3749 96.9004 92.3926C97.0115 92.4103 97.1254 92.3964 97.229 92.3525C97.4586 92.2621 97.5659 92.0744 97.5995 91.8365C97.6066 91.7648 97.6099 91.6928 97.6094 91.6207L97.8876 77.5117C97.894 77.1776 97.9009 76.8436 97.9083 76.5095C97.9096 76.4435 97.9004 76.3761 97.9818 76.3465C98.1153 76.2954 98.2396 76.2202 98.3833 76.1849C98.4303 76.2777 98.4058 76.3715 98.4042 76.4593C98.3234 80.9386 98.2411 85.4177 98.1575 89.8966C98.1365 91.0231 98.1152 92.1495 98.0937 93.2758C98.087 93.3578 98.0987 93.4401 98.1279 93.517C98.1572 93.5938 98.2032 93.6631 98.2627 93.7199C98.8407 94.244 99.4192 94.7664 99.9983 95.2869C100.195 95.463 100.421 95.479 100.659 95.3769C100.766 95.3342 100.858 95.261 100.924 95.1663C100.99 95.0717 101.027 94.9598 101.029 94.8446ZM90.7558 85.2293C90.766 84.6278 90.7777 84.0258 90.7909 83.4234C90.816 82.1927 90.8438 80.9622 90.8616 79.7315C90.8623 79.5832 90.9089 79.5039 91.0481 79.4615C91.1572 79.4206 91.264 79.3739 91.3682 79.3217L91.2484 85.8162C91.073 85.6604 90.9336 85.5347 90.7928 85.4115C90.7342 85.3598 90.7572 85.2909 90.758 85.2283L90.7558 85.2293ZM92.9437 89.1502C92.9282 90.0146 92.9125 90.8783 92.8964 91.7412C92.8687 93.2783 92.8412 94.8166 92.8137 96.3562C92.8123 96.44 92.8093 96.5231 92.8066 96.6323C92.7892 96.625 92.7723 96.6164 92.7561 96.6066C92.6057 96.4706 92.4124 96.3593 92.3182 96.1915C92.2297 96.0338 92.2981 95.82 92.3014 95.6312C92.3396 93.3454 92.3799 91.0604 92.4222 88.7762C92.4142 88.6964 92.4237 88.6159 92.4501 88.5401C92.6113 88.6845 92.769 88.8206 92.9194 88.9612C92.9736 89.0134 92.9497 89.0847 92.9459 89.1493L92.9437 89.1502ZM94.6795 88.8794C94.5085 88.7276 94.373 88.6047 94.2336 88.4849C94.1603 88.422 94.1795 88.3416 94.1811 88.2656C94.1943 87.5252 94.209 86.7851 94.2251 86.0453C94.2762 83.4391 94.327 80.8329 94.3775 78.2265C94.3786 78.1809 94.382 78.1349 94.3826 78.0881C94.3807 78.0625 94.3876 78.037 94.4021 78.0157C94.4167 77.9945 94.438 77.9789 94.4625 77.9714C94.594 77.914 94.7248 77.8569 94.8832 77.7877L94.6795 88.8794Z" fill="#778899"/>
<path d="M82.5377 111.334L82.8241 116.095L82.8994 117.562C82.9007 117.581 81.9695 118.029 81.9695 118.029C81.9558 118.007 81.9402 117.987 81.923 117.968C81.0112 117.075 80.0986 116.182 79.1855 115.29C79.1591 115.264 79.1373 115.229 79.092 115.238C79.0898 115.251 79.0884 115.265 79.0878 115.278L79.1938 119.241L78.259 119.649C78.2409 119.573 78.1747 119.534 78.1263 119.483C77.5845 118.921 77.0432 118.361 76.5025 117.802C75.7625 117.034 75.0229 116.267 74.2835 115.501L74.2738 115.491L73.9599 115.168L73.9059 115.111C74.304 114.938 74.7032 114.763 75.097 114.58C75.202 114.534 75.2502 114.578 75.3134 114.644C75.8994 115.242 76.4865 115.839 77.0749 116.436C77.295 116.658 77.5145 116.881 77.7644 117.134C77.7648 117.043 77.7665 116.989 77.7655 116.937C77.7381 115.841 77.7114 114.747 77.6853 113.654C77.6802 113.423 77.6513 113.472 77.8695 113.372C78.1445 113.252 78.4194 113.132 78.6982 113.011C78.8571 112.941 78.8577 112.941 78.9834 113.064C79.75 113.833 80.5166 114.603 81.2831 115.373C81.328 115.419 81.3768 115.463 81.449 115.531C81.4482 115.443 81.4522 115.388 81.4474 115.335L81.3377 112.058C81.3308 111.861 81.3313 111.86 81.504 111.785L82.5377 111.334Z" fill="#778899"/>
<path d="M96.5848 109.291C96.1 108.18 95.6151 107.07 95.1302 105.959C95.0605 105.8 95.0601 105.799 94.9037 105.866C94.5737 106.01 94.2474 106.163 93.912 106.294C93.7526 106.356 93.6858 106.442 93.6668 106.617C93.5466 107.717 93.4134 108.815 93.2829 109.914C93.2756 109.983 93.2832 110.054 93.2321 110.122C93.1697 110.076 93.117 110.041 93.0644 109.998C92.1825 109.328 91.3044 108.657 90.4284 107.981C90.3896 107.943 90.3394 107.919 90.2855 107.912C90.2316 107.905 90.177 107.917 90.13 107.944C89.7737 108.11 89.4097 108.258 89.0512 108.419C88.8202 108.52 88.8297 108.483 88.9348 108.724C89.6504 110.363 90.366 112.002 91.0816 113.641C91.1313 113.755 91.184 113.868 91.2353 113.981L92.3901 113.477L90.9868 110.263C91.0504 110.25 91.0752 110.284 91.1039 110.306C92.1053 111.065 93.1065 111.823 94.1074 112.582C94.1321 112.603 94.1554 112.625 94.1772 112.649C94.2431 112.658 94.2487 112.612 94.2547 112.564L94.3486 111.803C94.473 110.789 94.5991 109.775 94.7268 108.763C94.7244 108.689 94.7436 108.615 94.782 108.551L94.8458 108.697C95.2703 109.669 95.6944 110.64 96.1182 111.611C96.1471 111.677 96.1792 111.742 96.2096 111.807L97.4358 111.272C97.4238 111.2 97.3991 111.132 97.3628 111.07C97.1041 110.478 96.8448 109.885 96.5848 109.291Z" fill="#778899"/>
<path d="M89.753 113.34C88.6423 113.825 87.5314 114.31 86.4202 114.795C86.2509 114.869 86.2498 114.869 86.1789 114.708C86.0531 114.42 85.927 114.131 85.8012 113.843C85.7331 113.687 85.7328 113.687 85.8888 113.616L85.9784 113.577C86.6812 113.271 87.3839 112.964 88.0867 112.657C88.2252 112.596 88.2274 112.595 88.1687 112.459C88.0561 112.201 87.9433 111.943 87.8304 111.685C87.7567 111.516 87.7632 111.531 87.6016 111.6C87.1803 111.781 86.7608 111.967 86.3407 112.15C86.0284 112.287 85.7161 112.423 85.406 112.559C85.2718 112.617 85.2681 112.615 85.2068 112.477C85.1019 112.237 84.997 111.997 84.892 111.756C84.8378 111.632 84.8399 111.628 84.9686 111.572C85.3766 111.394 85.7851 111.215 86.1937 111.037C86.9081 110.725 87.623 110.413 88.3382 110.1C88.4751 110.041 88.4768 110.04 88.4171 109.9C88.3069 109.648 88.1967 109.396 88.0868 109.144C87.9982 108.941 88.0269 108.941 87.8075 109.037C86.3181 109.687 84.8289 110.337 83.3398 110.987C83.0709 111.105 83.0942 111.059 83.2056 111.314C83.9606 113.043 84.7157 114.773 85.471 116.503L90.4463 114.331C90.3205 114.042 90.2013 113.751 90.0755 113.463C89.9613 113.211 90.0028 113.234 89.753 113.34Z" fill="#778899"/>
<path d="M126.36 94.6629C126.886 93.6016 127.412 92.5399 127.937 91.4778L127.922 91.442C127.427 91.6581 126.941 91.8808 126.446 92.0902C126.313 92.1425 126.205 92.2434 126.143 92.3724C125.657 93.3164 125.167 94.2579 124.673 95.1969C124.645 95.2498 124.64 95.3266 124.552 95.3427L124.489 95.197C124.234 94.6141 123.98 94.0315 123.725 93.449C123.666 93.312 123.662 93.311 123.524 93.3705C123.2 93.5121 122.875 93.6537 122.551 93.7952C122.413 93.8557 122.413 93.8557 122.47 93.9952C122.485 94.0309 122.501 94.0672 122.518 94.1051L124.54 98.7362C124.603 98.8802 124.67 99.0232 124.728 99.1684C124.765 99.2617 124.81 99.2833 124.905 99.2405C125.24 99.0886 125.576 98.9424 125.914 98.7999C126.004 98.7608 126.043 98.7177 125.988 98.6243C125.97 98.5887 125.954 98.5519 125.94 98.5143C125.722 98.0154 125.505 97.5168 125.287 97.0186C125.263 96.9637 125.22 96.9045 125.261 96.8338C125.398 96.5955 125.533 96.3562 125.668 96.116C125.672 96.1054 125.678 96.0959 125.687 96.0884C125.696 96.0808 125.706 96.0754 125.717 96.0725C125.728 96.0697 125.74 96.0695 125.751 96.0719C125.762 96.0744 125.772 96.0795 125.781 96.0867C125.816 96.1057 125.85 96.122 125.886 96.1411C126.779 96.5965 127.672 97.0523 128.565 97.5084C128.606 97.5333 128.653 97.5475 128.7 97.5494C128.748 97.5514 128.796 97.5412 128.839 97.5197C129.257 97.33 129.68 97.1524 130.099 96.9651C130.136 96.9488 130.193 96.9515 130.198 96.8918C130.15 96.8467 130.093 96.8121 130.031 96.7902C128.835 96.1665 127.637 95.5431 126.44 94.9199C126.275 94.8342 126.258 94.8678 126.36 94.6629Z" fill="#778899"/>
<path d="M103.333 107.886C101.95 106.684 100.569 105.481 99.1898 104.277C99.0603 104.163 98.9622 104.147 98.8132 104.224C98.6032 104.331 98.3869 104.426 98.1654 104.507C98.0166 104.562 97.9623 104.641 97.9593 104.806C97.9327 106.33 97.8948 107.853 97.8606 109.378C97.8495 109.952 97.8394 110.529 97.8315 111.103L99.0209 110.584C99.0443 110.093 99.0701 109.603 99.0883 109.114C99.0924 109.008 99.1448 108.968 99.2303 108.931C99.7466 108.706 100.263 108.48 100.78 108.254C100.949 108.181 101.117 108.107 101.285 108.034C101.313 108.018 101.346 108.011 101.378 108.015C101.41 108.019 101.44 108.033 101.463 108.056C101.828 108.364 102.196 108.669 102.563 108.977C102.576 108.992 102.585 109.01 102.592 109.029L103.926 108.447C103.928 108.38 103.873 108.362 103.836 108.329C103.67 108.18 103.501 108.032 103.333 107.886ZM99.0948 107.838L99.2017 106.072C99.6733 106.464 100.108 106.826 100.56 107.202L99.0948 107.838Z" fill="#778899"/>
<path d="M109.813 102.571C109.738 102.558 109.657 102.568 109.587 102.529C109.588 102.517 109.586 102.511 109.588 102.506C109.604 102.477 109.62 102.448 109.636 102.42C109.846 102.066 109.898 101.694 109.758 101.306C109.473 100.501 108.835 100.091 108.002 100.235C107.744 100.284 107.493 100.365 107.255 100.474C106.174 100.946 105.092 101.418 104.011 101.89C103.852 101.959 103.85 101.96 103.918 102.116C104.663 103.822 105.408 105.528 106.153 107.235C106.221 107.392 106.221 107.392 106.38 107.324L106.452 107.293C107.462 106.852 108.471 106.411 109.48 105.971C109.697 105.878 109.908 105.772 110.112 105.654C110.934 105.177 111.324 104.307 110.854 103.354C110.759 103.147 110.615 102.967 110.433 102.831C110.251 102.694 110.038 102.605 109.813 102.571ZM105.643 102.647C105.586 102.516 105.587 102.51 105.709 102.457C106.352 102.176 106.995 101.897 107.638 101.618C107.758 101.564 107.885 101.528 108.016 101.513C108.251 101.489 108.401 101.586 108.501 101.825C108.595 102.05 108.558 102.225 108.386 102.374C108.257 102.476 108.114 102.558 107.961 102.618C107.692 102.739 107.421 102.854 107.15 102.972C106.814 103.119 106.478 103.266 106.141 103.413C106.006 103.471 106.003 103.469 105.942 103.331C105.841 103.104 105.742 102.876 105.643 102.647ZM109.506 104.528C109.336 104.72 109.107 104.824 108.883 104.931C108.639 105.045 108.388 105.147 108.144 105.254C107.814 105.398 107.484 105.542 107.154 105.686C107.003 105.752 107.001 105.753 106.937 105.609C106.803 105.302 106.67 104.996 106.536 104.69C106.498 104.604 106.514 104.563 106.6 104.526C107.261 104.242 107.92 103.95 108.583 103.67C108.728 103.608 108.883 103.572 109.041 103.564C109.291 103.55 109.466 103.667 109.576 103.889C109.685 104.111 109.68 104.333 109.506 104.528Z" fill="#778899"/>
<path d="M121.509 94.2478C121.228 94.3761 120.944 94.4943 120.662 94.6177C120.455 94.708 120.462 94.6845 120.556 94.8984C120.975 95.8592 121.395 96.8202 121.814 97.7814C121.841 97.8413 121.89 97.8995 121.862 97.9961C121.786 97.9602 121.721 97.9267 121.655 97.9002C120.238 97.329 118.821 96.7576 117.406 96.1859C117.351 96.1592 117.29 96.1456 117.229 96.1462C117.168 96.1469 117.108 96.1617 117.054 96.1897C116.823 96.3007 116.585 96.3942 116.352 96.4992C116.132 96.5953 116.134 96.5666 116.231 96.7893L118.426 101.817C118.442 101.853 118.457 101.889 118.474 101.927C118.499 101.994 118.538 102.016 118.609 101.985C118.934 101.843 119.258 101.702 119.582 101.56C119.649 101.531 119.674 101.493 119.642 101.424C119.62 101.376 119.6 101.328 119.578 101.279C119.156 100.313 118.734 99.3457 118.312 98.3783C118.275 98.317 118.251 98.249 118.241 98.1782C118.305 98.1574 118.35 98.1962 118.395 98.2125C118.705 98.3348 119.015 98.4601 119.326 98.5837C120.506 99.0557 121.687 99.5282 122.867 100.001C122.914 100.023 122.965 100.035 123.016 100.034C123.068 100.033 123.118 100.021 123.164 99.9974C123.381 99.8942 123.609 99.8032 123.831 99.7062C124.007 99.6296 124.007 99.6296 123.931 99.4518L121.735 94.4226C121.719 94.3864 121.701 94.3513 121.687 94.3127C121.656 94.2165 121.601 94.2056 121.509 94.2478Z" fill="#778899"/>
<path d="M115.83 100.416C114.931 99.6341 114.032 98.8518 113.134 98.0693C113.044 97.9902 112.971 97.9691 112.858 98.0235C112.616 98.1396 112.368 98.2494 112.12 98.3457C111.998 98.3933 111.956 98.4586 111.954 98.5906C111.912 100.645 111.868 102.7 111.821 104.754C111.82 104.81 111.798 104.872 111.855 104.936C112.21 104.781 112.57 104.624 112.928 104.467C113.017 104.429 113.012 104.359 113.014 104.29C113.036 103.852 113.065 103.416 113.079 102.975C113.076 102.924 113.091 102.874 113.12 102.832C113.149 102.791 113.192 102.76 113.241 102.746C113.897 102.465 114.552 102.18 115.204 101.889C115.329 101.834 115.411 101.84 115.516 101.933C115.841 102.218 116.177 102.489 116.509 102.765C116.564 102.811 116.609 102.861 116.697 102.822C117.103 102.64 117.513 102.466 117.935 102.282C117.904 102.222 117.859 102.17 117.804 102.131C117.145 101.559 116.487 100.987 115.83 100.416ZM113.125 101.663C113.086 101.536 113.153 100.228 113.215 99.9207L114.558 101.037L113.125 101.663Z" fill="#778899"/>
</g>
</g>
</g>
<defs>
<filter id="filter0_d_2668_5296" x="-3.96411" y="-104" width="456.52" height="374.94" filterUnits="userSpaceOnUse" color-interpolation-filters="sRGB">
<feFlood flood-opacity="0" result="BackgroundImageFix"/>
<feColorMatrix in="SourceAlpha" type="matrix" values="0 0 0 0 0 0 0 0 0 0 0 0 0 0 0 0 0 0 127 0" result="hardAlpha"/>
<feOffset/>
<feGaussianBlur stdDeviation="20"/>
<feComposite in2="hardAlpha" operator="out"/>
<feColorMatrix type="matrix" values="0 0 0 0 0 0 0 0 0 0 0 0 0 0 0 0 0 0 0.12 0"/>
<feBlend mode="normal" in2="BackgroundImageFix" result="effect1_dropShadow_2668_5296"/>
<feBlend mode="normal" in="SourceGraphic" in2="effect1_dropShadow_2668_5296" result="shape"/>
</filter>
<linearGradient id="paint0_linear_2668_5296" x1="36.0359" y1="157.643" x2="370.036" y2="157.643" gradientUnits="userSpaceOnUse">
<stop stop-color="#ACB6E5"/>
<stop offset="1" stop-color="#86FDE8"/>
</linearGradient>
<clipPath id="clip0_2668_5296">
<rect x="36.0359" y="69.6431" width="334" height="176" rx="15" transform="rotate(-23.5863 36.0359 69.6431)" fill="white"/>
</clipPath>
<clipPath id="clip1_2668_5296">
<rect width="60" height="60" fill="white" transform="translate(57.1013 77.9043) rotate(-23.5863)"/>
</clipPath>
</defs>
</svg>
