<svg width="288" height="38" viewBox="0 0 288 38" fill="none" xmlns="http://www.w3.org/2000/svg">
<rect x="0.5" y="0.5" width="287" height="37" rx="7.5" fill="white"/>
<path d="M86.55 27.28C85.57 28.23 84.5 28.08 83.47 27.63C82.38 27.17 81.38 27.15 80.23 27.63C78.79 28.25 78.03 28.07 77.17 27.28C72.29 22.25 73.01 14.59 78.55 14.31C79.9 14.38 80.84 15.05 81.63 15.11C82.81 14.87 83.94 14.18 85.2 14.27C86.71 14.39 87.85 14.99 88.6 16.07C85.48 17.94 86.22 22.05 89.08 23.2C88.51 24.7 87.77 26.19 86.54 27.29L86.55 27.28ZM81.53 14.25C81.38 12.02 83.19 10.18 85.27 10C85.56 12.58 82.93 14.5 81.53 14.25Z" fill="#1B1C1E"/>
<path d="M103.292 21.794H102.088C102.116 22.438 102.284 23.012 102.592 23.516C102.9 24.02 103.348 24.398 103.922 24.678C104.482 24.958 105.154 25.084 105.924 25.084C106.596 25.084 107.198 24.972 107.73 24.72C108.262 24.482 108.668 24.146 108.962 23.698C109.256 23.264 109.41 22.76 109.41 22.2C109.41 21.346 109.116 20.73 108.528 20.338C107.94 19.946 107.156 19.666 106.176 19.498C105.56 19.4 105.07 19.302 104.72 19.19C104.356 19.078 104.076 18.924 103.852 18.714C103.628 18.504 103.516 18.21 103.516 17.832C103.516 17.328 103.698 16.922 104.09 16.642C104.468 16.362 104.986 16.208 105.644 16.208C106.288 16.208 106.834 16.39 107.282 16.726C107.716 17.076 107.968 17.538 108.052 18.098H109.256C109.214 17.51 109.046 16.992 108.738 16.544C108.43 16.096 108.01 15.732 107.478 15.48C106.946 15.228 106.33 15.102 105.644 15.102C104.986 15.102 104.398 15.228 103.894 15.452C103.39 15.69 102.998 16.026 102.718 16.446C102.438 16.866 102.298 17.356 102.298 17.902C102.298 18.77 102.578 19.386 103.166 19.764C103.74 20.156 104.524 20.422 105.504 20.59C106.12 20.702 106.596 20.8 106.96 20.912C107.324 21.024 107.618 21.178 107.842 21.402C108.066 21.626 108.192 21.934 108.192 22.312C108.192 22.844 107.982 23.25 107.562 23.544C107.142 23.838 106.61 23.978 105.938 23.978C105.182 23.978 104.566 23.782 104.09 23.39C103.6 22.998 103.334 22.466 103.292 21.794ZM111.894 15.312C111.754 15.172 111.572 15.102 111.362 15.102C111.138 15.102 110.97 15.172 110.83 15.312C110.69 15.452 110.62 15.634 110.62 15.844C110.62 16.068 110.69 16.236 110.83 16.376C110.97 16.516 111.138 16.586 111.362 16.586C111.572 16.586 111.754 16.516 111.894 16.376C112.034 16.236 112.104 16.068 112.104 15.844C112.104 15.634 112.034 15.452 111.894 15.312ZM110.788 17.86V25H111.936V17.86H110.788ZM120.285 17.86H119.291L119.137 19.092C118.899 18.672 118.577 18.35 118.171 18.126C117.751 17.902 117.261 17.776 116.687 17.776C116.029 17.776 115.441 17.93 114.923 18.238C114.391 18.546 113.985 18.98 113.691 19.526C113.397 20.086 113.257 20.716 113.257 21.43C113.257 22.186 113.397 22.844 113.691 23.39C113.985 23.95 114.391 24.37 114.909 24.65C115.427 24.944 116.015 25.084 116.687 25.084C117.807 25.084 118.619 24.65 119.137 23.768V24.608C119.137 26.12 118.367 26.862 116.827 26.862C116.225 26.862 115.735 26.75 115.357 26.498C114.965 26.26 114.727 25.91 114.643 25.462H113.467C113.551 26.246 113.887 26.834 114.475 27.254C115.063 27.674 115.819 27.884 116.743 27.884C119.095 27.884 120.285 26.806 120.285 24.65V17.86ZM118.017 23.74C117.653 23.964 117.247 24.062 116.799 24.062C116.085 24.062 115.511 23.824 115.077 23.334C114.643 22.844 114.433 22.214 114.433 21.43C114.433 20.66 114.643 20.03 115.077 19.54C115.511 19.05 116.085 18.798 116.799 18.798C117.247 18.798 117.653 18.91 118.017 19.134C118.381 19.358 118.661 19.68 118.857 20.086C119.053 20.492 119.151 20.954 119.151 21.458C119.151 21.962 119.053 22.424 118.857 22.816C118.661 23.208 118.381 23.516 118.017 23.74ZM127.434 18.56C126.902 18.042 126.216 17.776 125.348 17.776C124.312 17.776 123.528 18.126 122.996 18.826L122.842 17.86H121.848V25H122.996V21.43C122.996 20.632 123.178 20.002 123.57 19.526C123.948 19.064 124.48 18.826 125.152 18.826C125.768 18.826 126.244 19.022 126.58 19.414C126.916 19.806 127.084 20.366 127.084 21.094V25H128.232V21.024C128.232 19.904 127.966 19.092 127.434 18.56ZM139.506 17.86H138.358V21.43C138.358 22.242 138.162 22.872 137.798 23.334C137.434 23.81 136.916 24.034 136.272 24.034C135.67 24.034 135.208 23.852 134.886 23.46C134.564 23.068 134.41 22.508 134.41 21.766V17.86H133.262V21.836C133.262 22.956 133.514 23.782 134.032 24.3C134.536 24.832 135.222 25.084 136.076 25.084C137.056 25.084 137.812 24.748 138.358 24.048L138.512 25H139.506V17.86ZM146.433 18.21C145.915 17.93 145.327 17.776 144.669 17.776C143.633 17.776 142.807 18.196 142.219 19.008L142.065 17.86H141.071V27.8H142.219V23.908C142.443 24.272 142.765 24.566 143.185 24.776C143.591 24.986 144.081 25.084 144.669 25.084C145.313 25.084 145.901 24.93 146.433 24.622C146.951 24.314 147.357 23.894 147.651 23.334C147.945 22.788 148.099 22.158 148.099 21.43C148.099 20.674 147.945 20.03 147.651 19.47C147.357 18.924 146.951 18.504 146.433 18.21ZM146.265 23.334C145.831 23.824 145.257 24.062 144.557 24.062C144.095 24.062 143.689 23.95 143.325 23.726C142.961 23.502 142.695 23.194 142.499 22.788C142.303 22.382 142.205 21.92 142.205 21.402C142.205 20.898 142.303 20.45 142.499 20.058C142.695 19.666 142.961 19.358 143.325 19.134C143.689 18.91 144.095 18.798 144.557 18.798C145.257 18.798 145.831 19.05 146.265 19.54C146.699 20.03 146.923 20.66 146.923 21.43C146.923 22.214 146.699 22.844 146.265 23.334ZM152.403 17.86L154.713 25.014L155.973 25L157.765 19.694L159.487 25H160.747L163.127 17.86H161.965L160.103 23.67L158.325 17.86H157.261L155.385 23.67L153.607 17.86H152.403ZM165.132 15.312C164.992 15.172 164.81 15.102 164.6 15.102C164.376 15.102 164.208 15.172 164.068 15.312C163.928 15.452 163.858 15.634 163.858 15.844C163.858 16.068 163.928 16.236 164.068 16.376C164.208 16.516 164.376 16.586 164.6 16.586C164.81 16.586 164.992 16.516 165.132 16.376C165.272 16.236 165.342 16.068 165.342 15.844C165.342 15.634 165.272 15.452 165.132 15.312ZM164.026 17.86V25H165.174V17.86H164.026ZM167.223 18.91V23.138C167.223 23.782 167.363 24.258 167.643 24.552C167.923 24.86 168.413 25 169.085 25H170.401V23.95H169.155C168.861 23.95 168.651 23.894 168.539 23.768C168.427 23.642 168.371 23.432 168.371 23.124V18.91H170.177V17.86H168.371V15.858H167.223V17.86H165.935V18.91H167.223ZM176.818 18.56C176.286 18.042 175.586 17.776 174.718 17.776C174.158 17.776 173.682 17.902 173.29 18.126C172.898 18.364 172.59 18.672 172.366 19.036V15.2H171.218V25H172.366V21.43C172.366 20.632 172.548 20.002 172.94 19.526C173.332 19.064 173.85 18.826 174.522 18.826C175.138 18.826 175.628 19.022 175.964 19.414C176.3 19.806 176.468 20.366 176.468 21.094V25H177.616V21.024C177.616 19.904 177.35 19.092 176.818 18.56ZM182.113 25H183.373L184.409 22.354H188.679L189.715 25H191.017L187.293 15.2H185.851L182.113 25ZM184.773 21.248L186.537 16.53L188.315 21.248H184.773ZM197.32 18.21C196.802 17.93 196.214 17.776 195.556 17.776C194.52 17.776 193.694 18.196 193.106 19.008L192.952 17.86H191.958V27.8H193.106V23.908C193.33 24.272 193.652 24.566 194.072 24.776C194.478 24.986 194.968 25.084 195.556 25.084C196.2 25.084 196.788 24.93 197.32 24.622C197.838 24.314 198.244 23.894 198.538 23.334C198.832 22.788 198.986 22.158 198.986 21.43C198.986 20.674 198.832 20.03 198.538 19.47C198.244 18.924 197.838 18.504 197.32 18.21ZM197.152 23.334C196.718 23.824 196.144 24.062 195.444 24.062C194.982 24.062 194.576 23.95 194.212 23.726C193.848 23.502 193.582 23.194 193.386 22.788C193.19 22.382 193.092 21.92 193.092 21.402C193.092 20.898 193.19 20.45 193.386 20.058C193.582 19.666 193.848 19.358 194.212 19.134C194.576 18.91 194.982 18.798 195.444 18.798C196.144 18.798 196.718 19.05 197.152 19.54C197.586 20.03 197.81 20.66 197.81 21.43C197.81 22.214 197.586 22.844 197.152 23.334ZM205.66 18.21C205.142 17.93 204.554 17.776 203.896 17.776C202.86 17.776 202.034 18.196 201.446 19.008L201.292 17.86H200.298V27.8H201.446V23.908C201.67 24.272 201.992 24.566 202.412 24.776C202.818 24.986 203.308 25.084 203.896 25.084C204.54 25.084 205.128 24.93 205.66 24.622C206.178 24.314 206.584 23.894 206.878 23.334C207.172 22.788 207.326 22.158 207.326 21.43C207.326 20.674 207.172 20.03 206.878 19.47C206.584 18.924 206.178 18.504 205.66 18.21ZM205.492 23.334C205.058 23.824 204.484 24.062 203.784 24.062C203.322 24.062 202.916 23.95 202.552 23.726C202.188 23.502 201.922 23.194 201.726 22.788C201.53 22.382 201.432 21.92 201.432 21.402C201.432 20.898 201.53 20.45 201.726 20.058C201.922 19.666 202.188 19.358 202.552 19.134C202.916 18.91 203.322 18.798 203.784 18.798C204.484 18.798 205.058 19.05 205.492 19.54C205.926 20.03 206.15 20.66 206.15 21.43C206.15 22.214 205.926 22.844 205.492 23.334ZM208.638 15.2V25H209.786V15.2H208.638ZM211.526 19.512C211.246 20.072 211.106 20.702 211.106 21.43C211.106 22.158 211.246 22.788 211.54 23.348C211.834 23.908 212.254 24.328 212.786 24.636C213.318 24.944 213.934 25.084 214.648 25.084C215.46 25.084 216.146 24.86 216.706 24.398C217.266 23.936 217.616 23.334 217.756 22.606H216.594C216.468 23.068 216.23 23.432 215.866 23.684C215.502 23.936 215.068 24.062 214.564 24.062C213.892 24.062 213.36 23.852 212.954 23.432C212.534 23.012 212.324 22.452 212.31 21.752V21.654H217.854C217.868 21.43 217.882 21.276 217.882 21.164C217.854 20.478 217.7 19.876 217.42 19.358C217.126 18.854 216.734 18.462 216.23 18.182C215.726 17.916 215.138 17.776 214.494 17.776C213.822 17.776 213.234 17.93 212.73 18.238C212.212 18.546 211.806 18.966 211.526 19.512ZM216.692 20.702H212.38C212.436 20.142 212.66 19.68 213.08 19.316C213.486 18.966 213.962 18.784 214.508 18.784C215.11 18.784 215.614 18.952 216.006 19.288C216.398 19.624 216.636 20.1 216.692 20.702Z" fill="#1B1C1E"/>
<rect x="0.5" y="0.5" width="287" height="37" rx="7.5" stroke="#C5D8EA"/>
</svg>
