<svg width="288" height="38" viewBox="0 0 288 38" fill="none" xmlns="http://www.w3.org/2000/svg">
<rect x="0.5" y="0.5" width="287" height="37" rx="7.5" fill="white"/>
<g clip-path="url(#clip0_1956_1990)">
<path d="M84.3093 19.1497C84.3093 18.4942 84.2561 18.0158 84.141 17.5198H76.6557V20.4784H81.0494C80.9609 21.2137 80.4825 22.321 79.4195 23.065L79.4046 23.1641L81.7713 24.9976L81.9353 25.0139C83.4412 23.6231 84.3093 21.5769 84.3093 19.1497Z" fill="#4285F4"/>
<path d="M76.6557 26.945C78.8083 26.945 80.6154 26.2363 81.9353 25.0139L79.4195 23.065C78.7463 23.5345 77.8427 23.8623 76.6557 23.8623C74.5474 23.8623 72.7581 22.4716 72.1202 20.5493L72.0267 20.5573L69.5658 22.4618L69.5336 22.5513C70.8446 25.1556 73.5376 26.945 76.6557 26.945Z" fill="#34A853"/>
<path d="M72.1202 20.5493C71.9519 20.0533 71.8545 19.5217 71.8545 18.9725C71.8545 18.4233 71.9519 17.8918 72.1113 17.3957L72.1069 17.2901L69.6151 15.3549L69.5336 15.3937C68.9932 16.4744 68.6832 17.6881 68.6832 18.9725C68.6832 20.257 68.9932 21.4705 69.5336 22.5513L72.1202 20.5493Z" fill="#FBBC05"/>
<path d="M76.6557 14.0827C78.1528 14.0827 79.1626 14.7293 79.7384 15.2697L81.9884 13.0729C80.6066 11.7884 78.8083 11 76.6557 11C73.5376 11 70.8446 12.7894 69.5336 15.3937L72.1114 17.3957C72.7581 15.4735 74.5474 14.0827 76.6557 14.0827Z" fill="#EB4335"/>
</g>
<path d="M94.1088 21.794H92.9048C92.9328 22.438 93.1008 23.012 93.4088 23.516C93.7168 24.02 94.1648 24.398 94.7388 24.678C95.2988 24.958 95.9708 25.084 96.7408 25.084C97.4128 25.084 98.0148 24.972 98.5468 24.72C99.0788 24.482 99.4848 24.146 99.7788 23.698C100.073 23.264 100.227 22.76 100.227 22.2C100.227 21.346 99.9328 20.73 99.3448 20.338C98.7568 19.946 97.9728 19.666 96.9928 19.498C96.3768 19.4 95.8868 19.302 95.5368 19.19C95.1728 19.078 94.8928 18.924 94.6688 18.714C94.4448 18.504 94.3328 18.21 94.3328 17.832C94.3328 17.328 94.5148 16.922 94.9068 16.642C95.2848 16.362 95.8028 16.208 96.4608 16.208C97.1048 16.208 97.6508 16.39 98.0988 16.726C98.5328 17.076 98.7848 17.538 98.8688 18.098H100.073C100.031 17.51 99.8628 16.992 99.5548 16.544C99.2468 16.096 98.8268 15.732 98.2948 15.48C97.7628 15.228 97.1468 15.102 96.4608 15.102C95.8028 15.102 95.2148 15.228 94.7108 15.452C94.2068 15.69 93.8148 16.026 93.5348 16.446C93.2548 16.866 93.1148 17.356 93.1148 17.902C93.1148 18.77 93.3948 19.386 93.9828 19.764C94.5568 20.156 95.3408 20.422 96.3208 20.59C96.9368 20.702 97.4128 20.8 97.7768 20.912C98.1408 21.024 98.4348 21.178 98.6588 21.402C98.8828 21.626 99.0088 21.934 99.0088 22.312C99.0088 22.844 98.7988 23.25 98.3788 23.544C97.9588 23.838 97.4268 23.978 96.7548 23.978C95.9988 23.978 95.3828 23.782 94.9068 23.39C94.4168 22.998 94.1508 22.466 94.1088 21.794ZM102.711 15.312C102.571 15.172 102.389 15.102 102.179 15.102C101.955 15.102 101.787 15.172 101.647 15.312C101.507 15.452 101.437 15.634 101.437 15.844C101.437 16.068 101.507 16.236 101.647 16.376C101.787 16.516 101.955 16.586 102.179 16.586C102.389 16.586 102.571 16.516 102.711 16.376C102.851 16.236 102.921 16.068 102.921 15.844C102.921 15.634 102.851 15.452 102.711 15.312ZM101.605 17.86V25H102.753V17.86H101.605ZM111.101 17.86H110.107L109.953 19.092C109.715 18.672 109.393 18.35 108.987 18.126C108.567 17.902 108.077 17.776 107.503 17.776C106.845 17.776 106.257 17.93 105.739 18.238C105.207 18.546 104.801 18.98 104.507 19.526C104.213 20.086 104.073 20.716 104.073 21.43C104.073 22.186 104.213 22.844 104.507 23.39C104.801 23.95 105.207 24.37 105.725 24.65C106.243 24.944 106.831 25.084 107.503 25.084C108.623 25.084 109.435 24.65 109.953 23.768V24.608C109.953 26.12 109.183 26.862 107.643 26.862C107.041 26.862 106.551 26.75 106.173 26.498C105.781 26.26 105.543 25.91 105.459 25.462H104.283C104.367 26.246 104.703 26.834 105.291 27.254C105.879 27.674 106.635 27.884 107.559 27.884C109.911 27.884 111.101 26.806 111.101 24.65V17.86ZM108.833 23.74C108.469 23.964 108.063 24.062 107.615 24.062C106.901 24.062 106.327 23.824 105.893 23.334C105.459 22.844 105.249 22.214 105.249 21.43C105.249 20.66 105.459 20.03 105.893 19.54C106.327 19.05 106.901 18.798 107.615 18.798C108.063 18.798 108.469 18.91 108.833 19.134C109.197 19.358 109.477 19.68 109.673 20.086C109.869 20.492 109.967 20.954 109.967 21.458C109.967 21.962 109.869 22.424 109.673 22.816C109.477 23.208 109.197 23.516 108.833 23.74ZM118.251 18.56C117.719 18.042 117.033 17.776 116.165 17.776C115.129 17.776 114.345 18.126 113.813 18.826L113.659 17.86H112.665V25H113.813V21.43C113.813 20.632 113.995 20.002 114.387 19.526C114.765 19.064 115.297 18.826 115.969 18.826C116.585 18.826 117.061 19.022 117.397 19.414C117.733 19.806 117.901 20.366 117.901 21.094V25H119.049V21.024C119.049 19.904 118.783 19.092 118.251 18.56ZM130.323 17.86H129.175V21.43C129.175 22.242 128.979 22.872 128.615 23.334C128.251 23.81 127.733 24.034 127.089 24.034C126.487 24.034 126.025 23.852 125.703 23.46C125.381 23.068 125.227 22.508 125.227 21.766V17.86H124.079V21.836C124.079 22.956 124.331 23.782 124.849 24.3C125.353 24.832 126.039 25.084 126.893 25.084C127.873 25.084 128.629 24.748 129.175 24.048L129.329 25H130.323V17.86ZM137.25 18.21C136.732 17.93 136.144 17.776 135.486 17.776C134.45 17.776 133.624 18.196 133.036 19.008L132.882 17.86H131.888V27.8H133.036V23.908C133.26 24.272 133.582 24.566 134.002 24.776C134.408 24.986 134.898 25.084 135.486 25.084C136.13 25.084 136.718 24.93 137.25 24.622C137.768 24.314 138.174 23.894 138.468 23.334C138.762 22.788 138.916 22.158 138.916 21.43C138.916 20.674 138.762 20.03 138.468 19.47C138.174 18.924 137.768 18.504 137.25 18.21ZM137.082 23.334C136.648 23.824 136.074 24.062 135.374 24.062C134.912 24.062 134.506 23.95 134.142 23.726C133.778 23.502 133.512 23.194 133.316 22.788C133.12 22.382 133.022 21.92 133.022 21.402C133.022 20.898 133.12 20.45 133.316 20.058C133.512 19.666 133.778 19.358 134.142 19.134C134.506 18.91 134.912 18.798 135.374 18.798C136.074 18.798 136.648 19.05 137.082 19.54C137.516 20.03 137.74 20.66 137.74 21.43C137.74 22.214 137.516 22.844 137.082 23.334ZM143.22 17.86L145.53 25.014L146.79 25L148.582 19.694L150.304 25H151.564L153.944 17.86H152.782L150.92 23.67L149.142 17.86H148.078L146.202 23.67L144.424 17.86H143.22ZM155.949 15.312C155.809 15.172 155.627 15.102 155.417 15.102C155.193 15.102 155.025 15.172 154.885 15.312C154.745 15.452 154.675 15.634 154.675 15.844C154.675 16.068 154.745 16.236 154.885 16.376C155.025 16.516 155.193 16.586 155.417 16.586C155.627 16.586 155.809 16.516 155.949 16.376C156.089 16.236 156.159 16.068 156.159 15.844C156.159 15.634 156.089 15.452 155.949 15.312ZM154.843 17.86V25H155.991V17.86H154.843ZM158.04 18.91V23.138C158.04 23.782 158.18 24.258 158.46 24.552C158.74 24.86 159.23 25 159.902 25H161.218V23.95H159.972C159.678 23.95 159.468 23.894 159.356 23.768C159.244 23.642 159.188 23.432 159.188 23.124V18.91H160.994V17.86H159.188V15.858H158.04V17.86H156.752V18.91H158.04ZM167.634 18.56C167.102 18.042 166.402 17.776 165.534 17.776C164.974 17.776 164.498 17.902 164.106 18.126C163.714 18.364 163.406 18.672 163.182 19.036V15.2H162.034V25H163.182V21.43C163.182 20.632 163.364 20.002 163.756 19.526C164.148 19.064 164.666 18.826 165.338 18.826C165.954 18.826 166.444 19.022 166.78 19.414C167.116 19.806 167.284 20.366 167.284 21.094V25H168.432V21.024C168.432 19.904 168.166 19.092 167.634 18.56ZM173.938 17.496C173.546 18.252 173.364 19.12 173.364 20.1C173.364 21.08 173.546 21.948 173.938 22.704C174.33 23.46 174.876 24.034 175.576 24.454C176.276 24.874 177.074 25.084 177.97 25.084C178.726 25.084 179.384 24.93 179.93 24.594C180.462 24.272 180.868 23.894 181.148 23.446L181.274 25H182.282V19.694H178.152V20.814H181.092V21.15C181.092 21.724 180.952 22.228 180.686 22.648C180.42 23.068 180.056 23.404 179.58 23.628C179.104 23.852 178.572 23.964 177.984 23.964C177.312 23.964 176.724 23.81 176.22 23.474C175.702 23.152 175.31 22.69 175.03 22.102C174.75 21.514 174.61 20.856 174.61 20.1C174.61 19.358 174.75 18.686 175.03 18.098C175.31 17.51 175.702 17.062 176.22 16.726C176.738 16.404 177.34 16.236 178.012 16.236C178.74 16.236 179.37 16.432 179.888 16.81C180.392 17.188 180.742 17.72 180.938 18.392H182.142C181.946 17.384 181.484 16.586 180.756 15.998C180.028 15.41 179.118 15.116 178.04 15.116C177.102 15.116 176.276 15.326 175.576 15.746C174.862 16.166 174.316 16.74 173.938 17.496ZM185.461 24.622C185.993 24.93 186.609 25.084 187.309 25.084C187.995 25.084 188.611 24.93 189.143 24.622C189.675 24.314 190.095 23.894 190.403 23.334C190.697 22.788 190.851 22.158 190.851 21.43C190.851 20.716 190.697 20.086 190.403 19.526C190.095 18.98 189.675 18.546 189.143 18.238C188.611 17.93 187.995 17.776 187.309 17.776C186.609 17.776 185.993 17.93 185.461 18.238C184.929 18.546 184.509 18.98 184.215 19.526C183.907 20.086 183.767 20.716 183.767 21.43C183.767 22.158 183.907 22.788 184.215 23.334C184.509 23.894 184.929 24.314 185.461 24.622ZM188.541 23.726C188.177 23.95 187.771 24.062 187.309 24.062C186.833 24.062 186.427 23.95 186.063 23.726C185.699 23.502 185.433 23.194 185.237 22.788C185.041 22.396 184.943 21.934 184.943 21.43C184.943 20.926 185.041 20.478 185.237 20.072C185.433 19.68 185.699 19.358 186.063 19.134C186.427 18.91 186.833 18.798 187.309 18.798C187.771 18.798 188.177 18.91 188.541 19.134C188.905 19.358 189.185 19.68 189.381 20.072C189.577 20.478 189.675 20.926 189.675 21.43C189.675 21.934 189.577 22.396 189.381 22.788C189.185 23.194 188.905 23.502 188.541 23.726ZM193.609 24.622C194.141 24.93 194.757 25.084 195.457 25.084C196.143 25.084 196.759 24.93 197.291 24.622C197.823 24.314 198.243 23.894 198.551 23.334C198.845 22.788 198.999 22.158 198.999 21.43C198.999 20.716 198.845 20.086 198.551 19.526C198.243 18.98 197.823 18.546 197.291 18.238C196.759 17.93 196.143 17.776 195.457 17.776C194.757 17.776 194.141 17.93 193.609 18.238C193.077 18.546 192.657 18.98 192.363 19.526C192.055 20.086 191.915 20.716 191.915 21.43C191.915 22.158 192.055 22.788 192.363 23.334C192.657 23.894 193.077 24.314 193.609 24.622ZM196.689 23.726C196.325 23.95 195.919 24.062 195.457 24.062C194.981 24.062 194.575 23.95 194.211 23.726C193.847 23.502 193.581 23.194 193.385 22.788C193.189 22.396 193.091 21.934 193.091 21.43C193.091 20.926 193.189 20.478 193.385 20.072C193.581 19.68 193.847 19.358 194.211 19.134C194.575 18.91 194.981 18.798 195.457 18.798C195.919 18.798 196.325 18.91 196.689 19.134C197.053 19.358 197.333 19.68 197.529 20.072C197.725 20.478 197.823 20.926 197.823 21.43C197.823 21.934 197.725 22.396 197.529 22.788C197.333 23.194 197.053 23.502 196.689 23.726ZM207.092 17.86H206.098L205.944 19.092C205.706 18.672 205.384 18.35 204.978 18.126C204.558 17.902 204.068 17.776 203.494 17.776C202.836 17.776 202.248 17.93 201.73 18.238C201.198 18.546 200.792 18.98 200.498 19.526C200.204 20.086 200.064 20.716 200.064 21.43C200.064 22.186 200.204 22.844 200.498 23.39C200.792 23.95 201.198 24.37 201.716 24.65C202.234 24.944 202.822 25.084 203.494 25.084C204.614 25.084 205.426 24.65 205.944 23.768V24.608C205.944 26.12 205.174 26.862 203.634 26.862C203.032 26.862 202.542 26.75 202.164 26.498C201.772 26.26 201.534 25.91 201.45 25.462H200.274C200.358 26.246 200.694 26.834 201.282 27.254C201.87 27.674 202.626 27.884 203.55 27.884C205.902 27.884 207.092 26.806 207.092 24.65V17.86ZM204.824 23.74C204.46 23.964 204.054 24.062 203.606 24.062C202.892 24.062 202.318 23.824 201.884 23.334C201.45 22.844 201.24 22.214 201.24 21.43C201.24 20.66 201.45 20.03 201.884 19.54C202.318 19.05 202.892 18.798 203.606 18.798C204.054 18.798 204.46 18.91 204.824 19.134C205.188 19.358 205.468 19.68 205.664 20.086C205.86 20.492 205.958 20.954 205.958 21.458C205.958 21.962 205.86 22.424 205.664 22.816C205.468 23.208 205.188 23.516 204.824 23.74ZM208.655 15.2V25H209.803V15.2H208.655ZM211.544 19.512C211.264 20.072 211.124 20.702 211.124 21.43C211.124 22.158 211.264 22.788 211.558 23.348C211.852 23.908 212.272 24.328 212.804 24.636C213.336 24.944 213.952 25.084 214.666 25.084C215.478 25.084 216.164 24.86 216.724 24.398C217.284 23.936 217.634 23.334 217.774 22.606H216.612C216.486 23.068 216.248 23.432 215.884 23.684C215.52 23.936 215.086 24.062 214.582 24.062C213.91 24.062 213.378 23.852 212.972 23.432C212.552 23.012 212.342 22.452 212.328 21.752V21.654H217.872C217.886 21.43 217.9 21.276 217.9 21.164C217.872 20.478 217.718 19.876 217.438 19.358C217.144 18.854 216.752 18.462 216.248 18.182C215.744 17.916 215.156 17.776 214.512 17.776C213.84 17.776 213.252 17.93 212.748 18.238C212.23 18.546 211.824 18.966 211.544 19.512ZM216.71 20.702H212.398C212.454 20.142 212.678 19.68 213.098 19.316C213.504 18.966 213.98 18.784 214.526 18.784C215.128 18.784 215.632 18.952 216.024 19.288C216.416 19.624 216.654 20.1 216.71 20.702Z" fill="#1B1C1E"/>
<rect x="0.5" y="0.5" width="287" height="37" rx="7.5" stroke="#C5D8EA"/>
<defs>
<clipPath id="clip0_1956_1990">
<rect width="15.6336" height="16" fill="white" transform="translate(68.6832 11)"/>
</clipPath>
</defs>
</svg>
