<svg width="41" height="41" viewBox="0 0 41 41" fill="none" xmlns="http://www.w3.org/2000/svg">
<path d="M37.2 28.5333L31.9833 16.3333C31.0333 14.1 29.6167 12.8333 28 12.75C26.4 12.6667 24.85 13.7833 23.6667 15.9167L20.5 21.6C19.8333 22.8 18.8833 23.5167 17.85 23.6C16.8 23.7 15.75 23.15 14.9 22.0667L14.5333 21.6C13.35 20.1167 11.8833 19.4 10.3833 19.55C8.88332 19.7 7.59999 20.7333 6.74999 22.4167L3.86665 28.1667C2.83332 30.25 2.93332 32.6667 4.14999 34.6333C5.36665 36.6 7.48332 37.7833 9.79999 37.7833H31.0667C33.3 37.7833 35.3833 36.6667 36.6167 34.8C37.8833 32.9333 38.0833 30.5833 37.2 28.5333Z" fill="#0F5CA8"/>
<path d="M12.1167 14.4667C15.2279 14.4667 17.7501 11.9445 17.7501 8.83333C17.7501 5.72213 15.2279 3.2 12.1167 3.2C9.00553 3.2 6.4834 5.72213 6.4834 8.83333C6.4834 11.9445 9.00553 14.4667 12.1167 14.4667Z" fill="#0F5CA8"/>
</svg>
